<svg width="300" height="150" viewBox="0 0 300 150" fill="none" xmlns="http://www.w3.org/2000/svg">
<path d="M225 0C226.64 0 228.269 0.0525165 229.883 0.15625C234.145 0.000565584 239.105 0 244.918 0H258C277.799 0 287.699 -0.000329895 293.85 6.15039C300 12.3011 300 22.201 300 42V108C300 127.799 300 137.699 293.85 143.85C287.699 150 277.799 150 258 150H244.918C239.105 150 234.145 149.998 229.883 149.843C228.269 149.947 226.64 150 225 150H75C33.5786 150 0 116.421 0 75C6.04075e-07 33.5786 33.5786 1.61067e-06 75 0H225Z" fill="url(#paint0_linear_60_2)"/>
<circle cx="74.5" cy="74.5" r="62.5" fill="url(#paint1_linear_60_2)"/>
<g clip-path="url(#clip0_60_2)">
<path d="M74.5 114.9C96.8123 114.9 114.9 96.8124 114.9 74.5001C114.9 52.1878 96.8123 34.1001 74.5 34.1001C52.1877 34.1001 34.1 52.1878 34.1 74.5001C34.1 96.8124 52.1877 114.9 74.5 114.9Z" stroke="url(#paint2_linear_60_2)" stroke-width="8" stroke-linecap="round" stroke-linejoin="round"/>
<path d="M61.37 61.3899C64.7058 61.3899 67.41 64.0941 67.41 67.4299C67.41 70.7657 64.7058 73.4699 61.37 73.47C58.0342 73.47 55.33 70.7657 55.33 67.4299C55.33 64.0941 58.0342 61.3899 61.37 61.3899Z" fill="url(#paint3_linear_60_2)" stroke="url(#paint4_linear_60_2)" stroke-width="4"/>
<path d="M87.63 61.3899C90.9658 61.3899 93.67 64.0941 93.67 67.4299C93.67 70.7657 90.9658 73.4699 87.63 73.47C84.2942 73.47 81.59 70.7657 81.59 67.4299C81.59 64.0941 84.2942 61.3899 87.63 61.3899Z" fill="url(#paint5_linear_60_2)" stroke="url(#paint6_linear_60_2)" stroke-width="4"/>
<path d="M91.67 91.165C80.2234 82.4117 68.7767 82.4117 57.33 91.165" stroke="url(#paint7_linear_60_2)" stroke-width="8" stroke-linecap="round" stroke-linejoin="round"/>
</g>
<path d="M157.094 46H153.484C153.391 46 153.344 45.9479 153.344 45.8438V27.5938H149.188C149.083 27.5938 149.031 27.5417 149.031 27.4375L149.062 23.8594C149.062 23.776 149.104 23.7344 149.188 23.7344H161.344C161.458 23.7344 161.516 23.776 161.516 23.8594V27.4375C161.516 27.5417 161.474 27.5938 161.391 27.5938H157.188L157.219 45.8438C157.219 45.9479 157.177 46 157.094 46ZM166.859 46H163.234C163.13 46 163.078 45.9479 163.078 45.8438L163.109 23.8594C163.109 23.776 163.151 23.7344 163.234 23.7344H166.828C166.911 23.7344 166.953 23.776 166.953 23.8594L166.984 45.8438C166.984 45.9479 166.943 46 166.859 46ZM175.688 45.9688L169.953 46C169.849 46 169.797 45.9479 169.797 45.8438L169.859 23.8594C169.859 23.776 169.901 23.7344 169.984 23.7344L175.969 23.7031C177.156 23.6719 178.229 23.9427 179.188 24.5156C180.156 25.0885 180.927 25.8646 181.5 26.8438C182.083 27.8125 182.375 28.8854 182.375 30.0625V39.25C182.375 40.4792 182.078 41.6042 181.484 42.625C180.88 43.6354 180.078 44.4427 179.078 45.0469C178.078 45.6406 176.948 45.9479 175.688 45.9688ZM175.969 27.5312L173.734 27.5625L173.703 42.0625H175.688C176.479 42.0625 177.146 41.7865 177.688 41.2344C178.229 40.6823 178.5 40.0208 178.5 39.25V30.0312C178.5 29.3542 178.25 28.7656 177.75 28.2656C177.25 27.7552 176.656 27.5104 175.969 27.5312ZM183.156 45.8438L187.125 23.8594C187.146 23.776 187.198 23.7344 187.281 23.7344H191.922C192.005 23.7344 192.057 23.776 192.078 23.8594L195.891 45.8438C195.901 45.9479 195.859 46 195.766 46H192.219C192.115 46 192.057 45.9479 192.047 45.8438L191.703 43.5H187.344L187 45.8438C186.99 45.9479 186.938 46 186.844 46H183.281C183.198 46 183.156 45.9479 183.156 45.8438ZM189.75 31.0938L189.562 29.9062L189.422 31.0938L187.984 40.0781H191.062L189.75 31.0938ZM201.641 46H198.016C197.932 46 197.891 45.9479 197.891 45.8438L197.953 23.8906C197.953 23.7865 197.995 23.7344 198.078 23.7344H201.672C201.755 23.7344 201.797 23.7865 201.797 23.8906V31.4688L206.812 23.8594C206.896 23.776 206.974 23.7344 207.047 23.7344H210.719C210.812 23.7344 210.833 23.776 210.781 23.8594L205.25 32.6875L211.453 45.875C211.505 45.9583 211.453 46 211.297 46H207.391C207.286 46 207.224 45.9583 207.203 45.875L202.875 36.4688L201.766 38.2188V45.8438C201.766 45.9479 201.724 46 201.641 46ZM160.734 75H150.391C150.307 75 150.266 74.9479 150.266 74.8438L150.297 52.8906C150.297 52.7865 150.349 52.7344 150.453 52.7344H154.016C154.12 52.7344 154.172 52.7865 154.172 52.8906L154.141 71.0625H160.734C160.839 71.0625 160.891 71.1146 160.891 71.2188V74.8438C160.891 74.9479 160.839 75 160.734 75ZM161.906 74.8438L165.875 52.8594C165.896 52.776 165.948 52.7344 166.031 52.7344H170.672C170.755 52.7344 170.807 52.776 170.828 52.8594L174.641 74.8438C174.651 74.9479 174.609 75 174.516 75H170.969C170.865 75 170.807 74.9479 170.797 74.8438L170.453 72.5H166.094L165.75 74.8438C165.74 74.9479 165.688 75 165.594 75H162.031C161.948 75 161.906 74.9479 161.906 74.8438ZM168.5 60.0938L168.312 58.9062L168.172 60.0938L166.734 69.0781H169.812L168.5 60.0938ZM181.062 75H177.391C177.318 75 177.281 74.9583 177.281 74.875L177.312 65.7812L173.031 52.8594C173.01 52.776 173.042 52.7344 173.125 52.7344H176.688C176.792 52.7344 176.854 52.776 176.875 52.8594L179.234 61.4688L181.641 52.8594C181.661 52.776 181.714 52.7344 181.797 52.7344H185.391C185.474 52.7344 185.505 52.776 185.484 52.8594L181.156 65.6562L181.188 74.875C181.188 74.9583 181.146 75 181.062 75ZM183.906 74.8438L187.875 52.8594C187.896 52.776 187.948 52.7344 188.031 52.7344H192.672C192.755 52.7344 192.807 52.776 192.828 52.8594L196.641 74.8438C196.651 74.9479 196.609 75 196.516 75H192.969C192.865 75 192.807 74.9479 192.797 74.8438L192.453 72.5H188.094L187.75 74.8438C187.74 74.9479 187.688 75 187.594 75H184.031C183.948 75 183.906 74.9479 183.906 74.8438ZM190.5 60.0938L190.312 58.9062L190.172 60.0938L188.734 69.0781H191.812L190.5 60.0938ZM202.391 75H198.766C198.682 75 198.641 74.9479 198.641 74.8438L198.703 52.8906C198.703 52.7865 198.745 52.7344 198.828 52.7344H202.422C202.505 52.7344 202.547 52.7865 202.547 52.8906V60.4688L207.562 52.8594C207.646 52.776 207.724 52.7344 207.797 52.7344H211.469C211.562 52.7344 211.583 52.776 211.531 52.8594L206 61.6875L212.203 74.875C212.255 74.9583 212.203 75 212.047 75H208.141C208.036 75 207.974 74.9583 207.953 74.875L203.625 65.4688L202.516 67.2188V74.8438C202.516 74.9479 202.474 75 202.391 75ZM220.875 74.8438L224.844 52.8594C224.865 52.776 224.917 52.7344 225 52.7344H229.641C229.724 52.7344 229.776 52.776 229.797 52.8594L233.609 74.8438C233.62 74.9479 233.578 75 233.484 75H229.938C229.833 75 229.776 74.9479 229.766 74.8438L229.422 72.5H225.062L224.719 74.8438C224.708 74.9479 224.656 75 224.562 75H221C220.917 75 220.875 74.9479 220.875 74.8438ZM227.469 60.0938L227.281 58.9062L227.141 60.0938L225.703 69.0781H228.781L227.469 60.0938ZM239.094 75H235.891C235.724 75 235.641 74.9271 235.641 74.7812L235.609 52.9844C235.609 52.8177 235.693 52.7344 235.859 52.7344H238.75L244.156 65.3438L244 52.9844C244 52.8177 244.094 52.7344 244.281 52.7344H247.453C247.578 52.7344 247.641 52.8177 247.641 52.9844L247.672 74.8125C247.672 74.9375 247.62 75 247.516 75H244.703L239.156 63.2188L239.391 74.75C239.391 74.9167 239.292 75 239.094 75ZM249.375 74.8438L253.344 52.8594C253.365 52.776 253.417 52.7344 253.5 52.7344H258.141C258.224 52.7344 258.276 52.776 258.297 52.8594L262.109 74.8438C262.12 74.9479 262.078 75 261.984 75H258.438C258.333 75 258.276 74.9479 258.266 74.8438L257.922 72.5H253.562L253.219 74.8438C253.208 74.9479 253.156 75 253.062 75H249.5C249.417 75 249.375 74.9479 249.375 74.8438ZM255.969 60.0938L255.781 58.9062L255.641 60.0938L254.203 69.0781H257.281L255.969 60.0938ZM267.859 75H264.234C264.151 75 264.109 74.9479 264.109 74.8438L264.172 52.8906C264.172 52.7865 264.214 52.7344 264.297 52.7344H267.891C267.974 52.7344 268.016 52.7865 268.016 52.8906V60.4688L273.031 52.8594C273.115 52.776 273.193 52.7344 273.266 52.7344H276.938C277.031 52.7344 277.052 52.776 277 52.8594L271.469 61.6875L277.672 74.875C277.724 74.9583 277.672 75 277.516 75H273.609C273.505 75 273.443 74.9583 273.422 74.875L269.094 65.4688L267.984 67.2188V74.8438C267.984 74.9479 267.943 75 267.859 75Z" fill="black"/>
<path d="M150.771 83.3691H153.213C153.47 83.3691 153.711 83.4049 153.936 83.4766C154.16 83.5449 154.354 83.6507 154.517 83.7939C154.679 83.9339 154.808 84.1097 154.902 84.3213C154.997 84.5296 155.044 84.7721 155.044 85.0488C155.044 85.1953 155.018 85.3402 154.966 85.4834C154.917 85.6266 154.847 85.7617 154.756 85.8887C154.668 86.0124 154.564 86.123 154.443 86.2207C154.323 86.3151 154.193 86.3867 154.053 86.4355C154.199 86.4616 154.346 86.5169 154.492 86.6016C154.639 86.6862 154.771 86.7985 154.888 86.9385C155.005 87.0785 155.099 87.2428 155.171 87.4316C155.246 87.6172 155.283 87.8223 155.283 88.0469C155.283 88.3561 155.236 88.6312 155.142 88.8721C155.05 89.113 154.912 89.318 154.727 89.4873C154.541 89.6533 154.312 89.7803 154.038 89.8682C153.765 89.9561 153.447 90 153.086 90H150.771V83.3691ZM152.969 89.1699C153.148 89.1699 153.309 89.1504 153.452 89.1113C153.599 89.0723 153.724 89.0088 153.828 88.9209C153.932 88.833 154.012 88.7191 154.067 88.5791C154.126 88.4391 154.155 88.2682 154.155 88.0664C154.155 87.8613 154.126 87.6904 154.067 87.5537C154.012 87.4137 153.934 87.3014 153.833 87.2168C153.735 87.1289 153.618 87.0671 153.481 87.0312C153.348 86.9954 153.203 86.9775 153.047 86.9775H151.88V89.1699H152.969ZM153.257 86.2402C153.485 86.1719 153.651 86.0417 153.755 85.8496C153.862 85.6543 153.916 85.3939 153.916 85.0684C153.916 84.7917 153.835 84.5768 153.672 84.4238C153.509 84.2676 153.285 84.1895 152.998 84.1895H151.88V86.2402H153.257ZM156.079 87.5537C156.079 87.085 156.136 86.6813 156.25 86.3428C156.364 86.0042 156.523 85.7259 156.729 85.5078C156.934 85.2897 157.178 85.1302 157.461 85.0293C157.747 84.9251 158.062 84.873 158.403 84.873C158.719 84.873 159.001 84.9268 159.248 85.0342C159.499 85.1383 159.71 85.2865 159.883 85.4785C160.055 85.6706 160.187 85.9001 160.278 86.167C160.369 86.4339 160.415 86.7285 160.415 87.0508C160.415 87.1615 160.41 87.264 160.4 87.3584C160.391 87.4528 160.379 87.5342 160.366 87.6025C160.353 87.6839 160.339 87.7572 160.322 87.8223L157.119 87.8076C157.122 88.0973 157.153 88.3382 157.212 88.5303C157.271 88.7191 157.357 88.8688 157.471 88.9795C157.588 89.0902 157.734 89.1683 157.91 89.2139C158.086 89.2562 158.294 89.2773 158.535 89.2773C158.74 89.2773 158.924 89.2643 159.087 89.2383C159.25 89.2122 159.388 89.1813 159.502 89.1455C159.632 89.1064 159.749 89.0609 159.854 89.0088C159.902 89.1227 159.94 89.2285 159.966 89.3262C159.995 89.4238 160.016 89.5085 160.029 89.5801C160.042 89.6647 160.052 89.7396 160.059 89.8047C159.951 89.86 159.821 89.9089 159.668 89.9512C159.538 89.987 159.378 90.0195 159.189 90.0488C159.001 90.0814 158.783 90.0977 158.535 90.0977C158.145 90.0977 157.796 90.0537 157.49 89.9658C157.188 89.8779 156.93 89.7347 156.719 89.5361C156.51 89.3343 156.351 89.0723 156.24 88.75C156.133 88.4245 156.079 88.0257 156.079 87.5537ZM159.37 87.0947V86.9287C159.37 86.7236 159.344 86.543 159.292 86.3867C159.243 86.2272 159.175 86.0938 159.087 85.9863C158.999 85.8789 158.895 85.7975 158.774 85.7422C158.654 85.6868 158.524 85.6592 158.384 85.6592C158.179 85.6592 157.998 85.6868 157.842 85.7422C157.686 85.7943 157.554 85.8789 157.446 85.9961C157.342 86.11 157.264 86.2581 157.212 86.4404C157.16 86.6227 157.134 86.8408 157.134 87.0947H159.37ZM162.09 84.9561L162.593 85.4834C162.629 85.402 162.674 85.3255 162.729 85.2539C162.788 85.179 162.855 85.1139 162.93 85.0586C163.008 85.0033 163.094 84.9593 163.188 84.9268C163.286 84.8942 163.392 84.8779 163.506 84.8779C163.6 84.8779 163.691 84.8861 163.779 84.9023C163.867 84.9154 163.963 84.9398 164.067 84.9756C164.071 84.9821 164.074 85.0081 164.077 85.0537C164.084 85.0993 164.087 85.1562 164.087 85.2246C164.087 85.2767 164.084 85.3385 164.077 85.4102C164.071 85.4785 164.059 85.5501 164.043 85.625C164.03 85.6966 164.009 85.7682 163.979 85.8398C163.953 85.9115 163.919 85.9733 163.877 86.0254L163.784 86.0498C163.719 86.0173 163.646 85.9896 163.564 85.9668C163.486 85.944 163.405 85.9326 163.32 85.9326C163.19 85.9326 163.081 85.9424 162.993 85.9619C162.905 85.9782 162.834 85.9961 162.778 86.0156C162.713 86.0384 162.661 86.0645 162.622 86.0938V90H161.577V85.9033L161.191 85.5078V84.9561H162.09ZM164.614 87.5928C164.614 87.1273 164.679 86.7236 164.81 86.3818C164.94 86.04 165.116 85.7568 165.337 85.5322C165.562 85.3076 165.82 85.1416 166.113 85.0342C166.406 84.9235 166.717 84.8682 167.046 84.8682C167.17 84.8682 167.28 84.8747 167.378 84.8877C167.476 84.8975 167.559 84.9105 167.627 84.9268C167.708 84.943 167.78 84.9626 167.842 84.9854V82.9736H168.882V89.1943L169.312 89.6924V90H168.335L167.998 89.6143H167.832C167.816 89.6305 167.782 89.6647 167.729 89.7168C167.681 89.7689 167.609 89.8226 167.515 89.8779C167.424 89.9333 167.31 89.9837 167.173 90.0293C167.039 90.0749 166.882 90.0977 166.699 90.0977C166.458 90.0977 166.214 90.0488 165.967 89.9512C165.719 89.8535 165.495 89.7021 165.293 89.4971C165.094 89.292 164.932 89.0332 164.805 88.7207C164.678 88.4049 164.614 88.029 164.614 87.5928ZM165.708 87.5928C165.708 87.8955 165.739 88.1543 165.801 88.3691C165.866 88.584 165.957 88.7614 166.074 88.9014C166.191 89.0381 166.335 89.139 166.504 89.2041C166.673 89.266 166.864 89.2969 167.075 89.2969C167.157 89.2969 167.243 89.2839 167.334 89.2578C167.425 89.2318 167.508 89.2008 167.583 89.165C167.671 89.1292 167.757 89.0853 167.842 89.0332V85.7324C167.799 85.7064 167.736 85.6803 167.651 85.6543C167.57 85.6283 167.456 85.6152 167.31 85.6152C166.799 85.6152 166.403 85.7845 166.123 86.123C165.846 86.4583 165.708 86.9482 165.708 87.5928ZM169.863 88.5742C169.863 88.304 169.902 88.0745 169.98 87.8857C170.059 87.6969 170.173 87.5423 170.322 87.4219C170.475 87.3014 170.659 87.2119 170.874 87.1533C171.092 87.0915 171.341 87.0524 171.621 87.0361L172.71 86.9775V86.5869C172.71 86.4111 172.694 86.2663 172.661 86.1523C172.632 86.0384 172.581 85.9473 172.51 85.8789C172.438 85.8105 172.342 85.7633 172.222 85.7373C172.104 85.708 171.958 85.6934 171.782 85.6934C171.606 85.6934 171.439 85.7129 171.279 85.752C171.123 85.791 170.986 85.8333 170.869 85.8789C170.729 85.9342 170.601 85.9961 170.483 86.0645C170.412 85.9635 170.355 85.8675 170.312 85.7764C170.27 85.682 170.238 85.5973 170.215 85.5225C170.186 85.4378 170.166 85.3564 170.156 85.2783C170.312 85.2002 170.48 85.1318 170.659 85.0732C170.815 85.0212 170.994 84.974 171.196 84.9316C171.401 84.8893 171.616 84.8682 171.841 84.8682C172.212 84.8682 172.52 84.9007 172.764 84.9658C173.008 85.0309 173.201 85.1302 173.345 85.2637C173.491 85.3939 173.592 85.5599 173.647 85.7617C173.706 85.9603 173.735 86.1963 173.735 86.4697V89.1943L174.146 89.6924V90H173.242L172.866 89.5654H172.69C172.674 89.5817 172.63 89.6191 172.559 89.6777C172.49 89.7331 172.401 89.7933 172.29 89.8584C172.183 89.9202 172.059 89.9756 171.919 90.0244C171.782 90.0732 171.636 90.0977 171.479 90.0977C171.235 90.0977 171.014 90.0618 170.815 89.9902C170.617 89.9154 170.446 89.8112 170.303 89.6777C170.163 89.541 170.054 89.3799 169.976 89.1943C169.901 89.0055 169.863 88.7988 169.863 88.5742ZM170.928 88.4863C170.928 88.6361 170.949 88.7614 170.991 88.8623C171.034 88.96 171.092 89.0381 171.167 89.0967C171.245 89.1553 171.338 89.196 171.445 89.2188C171.556 89.2415 171.678 89.2529 171.812 89.2529C171.935 89.2529 172.051 89.2383 172.158 89.209C172.269 89.1764 172.365 89.1406 172.446 89.1016C172.541 89.0592 172.629 89.0088 172.71 88.9502V87.6367L171.729 87.7002C171.576 87.71 171.447 87.736 171.343 87.7783C171.242 87.8206 171.16 87.876 171.099 87.9443C171.037 88.0127 170.993 88.0941 170.967 88.1885C170.941 88.2796 170.928 88.3789 170.928 88.4863ZM174.814 89.7754C174.814 89.7005 174.821 89.6191 174.834 89.5312C174.844 89.4564 174.858 89.3717 174.878 89.2773C174.901 89.1797 174.933 89.0788 174.976 88.9746C175.119 89.0299 175.269 89.0788 175.425 89.1211C175.558 89.1569 175.703 89.1911 175.859 89.2236C176.016 89.2529 176.17 89.2676 176.323 89.2676C176.46 89.2676 176.587 89.2627 176.704 89.2529C176.821 89.2432 176.922 89.2171 177.007 89.1748C177.095 89.1292 177.163 89.0625 177.212 88.9746C177.261 88.8835 177.285 88.7581 177.285 88.5986C177.285 88.4066 177.225 88.2552 177.104 88.1445C176.987 88.0339 176.782 87.9508 176.489 87.8955C176.187 87.8369 175.931 87.7588 175.723 87.6611C175.518 87.5635 175.35 87.4512 175.22 87.3242C175.093 87.194 175 87.0492 174.941 86.8896C174.886 86.7301 174.858 86.5592 174.858 86.377C174.858 86.1035 174.902 85.8708 174.99 85.6787C175.078 85.4867 175.205 85.332 175.371 85.2148C175.54 85.0944 175.749 85.0081 175.996 84.9561C176.247 84.9007 176.533 84.873 176.855 84.873C177.08 84.873 177.279 84.8893 177.451 84.9219C177.627 84.9512 177.773 84.9837 177.891 85.0195C178.027 85.0618 178.146 85.1107 178.247 85.166C178.237 85.2376 178.219 85.3158 178.193 85.4004C178.171 85.472 178.14 85.5534 178.101 85.6445C178.065 85.7357 178.016 85.8285 177.954 85.9229C177.866 85.8708 177.765 85.8252 177.651 85.7861C177.554 85.7503 177.437 85.7194 177.3 85.6934C177.163 85.6641 177.007 85.6494 176.831 85.6494C176.694 85.6494 176.567 85.6559 176.45 85.6689C176.336 85.682 176.237 85.7113 176.152 85.7568C176.071 85.8024 176.007 85.8724 175.962 85.9668C175.916 86.0579 175.894 86.1833 175.894 86.3428C175.894 86.4209 175.903 86.4925 175.923 86.5576C175.946 86.6195 175.988 86.6764 176.05 86.7285C176.115 86.7806 176.204 86.8294 176.318 86.875C176.436 86.9173 176.59 86.9596 176.782 87.002C177.082 87.0671 177.331 87.1419 177.529 87.2266C177.731 87.3112 177.891 87.4137 178.008 87.5342C178.128 87.6546 178.213 87.7962 178.262 87.959C178.314 88.1185 178.34 88.3089 178.34 88.5303C178.34 88.7679 178.302 88.9827 178.228 89.1748C178.153 89.3669 178.035 89.5312 177.876 89.668C177.716 89.8047 177.511 89.9105 177.261 89.9854C177.01 90.0602 176.707 90.0977 176.353 90.0977C176.125 90.0977 175.916 90.0814 175.728 90.0488C175.542 90.0163 175.381 89.9788 175.244 89.9365C175.085 89.891 174.941 89.8372 174.814 89.7754ZM179.16 88.5742C179.16 88.304 179.199 88.0745 179.277 87.8857C179.355 87.6969 179.469 87.5423 179.619 87.4219C179.772 87.3014 179.956 87.2119 180.171 87.1533C180.389 87.0915 180.638 87.0524 180.918 87.0361L182.007 86.9775V86.5869C182.007 86.4111 181.991 86.2663 181.958 86.1523C181.929 86.0384 181.878 85.9473 181.807 85.8789C181.735 85.8105 181.639 85.7633 181.519 85.7373C181.401 85.708 181.255 85.6934 181.079 85.6934C180.903 85.6934 180.736 85.7129 180.576 85.752C180.42 85.791 180.283 85.8333 180.166 85.8789C180.026 85.9342 179.897 85.9961 179.78 86.0645C179.709 85.9635 179.652 85.8675 179.609 85.7764C179.567 85.682 179.535 85.5973 179.512 85.5225C179.482 85.4378 179.463 85.3564 179.453 85.2783C179.609 85.2002 179.777 85.1318 179.956 85.0732C180.112 85.0212 180.291 84.974 180.493 84.9316C180.698 84.8893 180.913 84.8682 181.138 84.8682C181.509 84.8682 181.816 84.9007 182.061 84.9658C182.305 85.0309 182.498 85.1302 182.642 85.2637C182.788 85.3939 182.889 85.5599 182.944 85.7617C183.003 85.9603 183.032 86.1963 183.032 86.4697V89.1943L183.442 89.6924V90H182.539L182.163 89.5654H181.987C181.971 89.5817 181.927 89.6191 181.855 89.6777C181.787 89.7331 181.698 89.7933 181.587 89.8584C181.479 89.9202 181.356 89.9756 181.216 90.0244C181.079 90.0732 180.933 90.0977 180.776 90.0977C180.532 90.0977 180.311 90.0618 180.112 89.9902C179.914 89.9154 179.743 89.8112 179.6 89.6777C179.46 89.541 179.351 89.3799 179.272 89.1943C179.198 89.0055 179.16 88.7988 179.16 88.5742ZM180.225 88.4863C180.225 88.6361 180.246 88.7614 180.288 88.8623C180.33 88.96 180.389 89.0381 180.464 89.0967C180.542 89.1553 180.635 89.196 180.742 89.2188C180.853 89.2415 180.975 89.2529 181.108 89.2529C181.232 89.2529 181.348 89.2383 181.455 89.209C181.566 89.1764 181.662 89.1406 181.743 89.1016C181.838 89.0592 181.925 89.0088 182.007 88.9502V87.6367L181.025 87.7002C180.872 87.71 180.744 87.736 180.64 87.7783C180.539 87.8206 180.457 87.876 180.396 87.9443C180.334 88.0127 180.29 88.0941 180.264 88.1885C180.238 88.2796 180.225 88.3789 180.225 88.4863ZM184.98 84.9561L185.483 85.4834C185.519 85.402 185.565 85.3255 185.62 85.2539C185.679 85.179 185.745 85.1139 185.82 85.0586C185.898 85.0033 185.985 84.9593 186.079 84.9268C186.177 84.8942 186.283 84.8779 186.396 84.8779C186.491 84.8779 186.582 84.8861 186.67 84.9023C186.758 84.9154 186.854 84.9398 186.958 84.9756C186.961 84.9821 186.965 85.0081 186.968 85.0537C186.974 85.0993 186.978 85.1562 186.978 85.2246C186.978 85.2767 186.974 85.3385 186.968 85.4102C186.961 85.4785 186.95 85.5501 186.934 85.625C186.921 85.6966 186.899 85.7682 186.87 85.8398C186.844 85.9115 186.81 85.9733 186.768 86.0254L186.675 86.0498C186.61 86.0173 186.536 85.9896 186.455 85.9668C186.377 85.944 186.296 85.9326 186.211 85.9326C186.081 85.9326 185.972 85.9424 185.884 85.9619C185.796 85.9782 185.724 85.9961 185.669 86.0156C185.604 86.0384 185.552 86.0645 185.513 86.0938V90H184.468V85.9033L184.082 85.5078V84.9561H184.98ZM187.783 82.9688H188.779V86.6846L188.73 87.3926L188.989 87.085L190.557 85.0098H191.738L190.151 87.0215L189.746 87.4072L190.063 87.6953L191.826 90H190.64L188.96 87.7441L188.73 87.4512L188.779 88.3398V90H187.783V82.9688ZM192.246 88.5742C192.246 88.304 192.285 88.0745 192.363 87.8857C192.441 87.6969 192.555 87.5423 192.705 87.4219C192.858 87.3014 193.042 87.2119 193.257 87.1533C193.475 87.0915 193.724 87.0524 194.004 87.0361L195.093 86.9775V86.5869C195.093 86.4111 195.076 86.2663 195.044 86.1523C195.015 86.0384 194.964 85.9473 194.893 85.8789C194.821 85.8105 194.725 85.7633 194.604 85.7373C194.487 85.708 194.341 85.6934 194.165 85.6934C193.989 85.6934 193.822 85.7129 193.662 85.752C193.506 85.791 193.369 85.8333 193.252 85.8789C193.112 85.9342 192.983 85.9961 192.866 86.0645C192.795 85.9635 192.738 85.8675 192.695 85.7764C192.653 85.682 192.62 85.5973 192.598 85.5225C192.568 85.4378 192.549 85.3564 192.539 85.2783C192.695 85.2002 192.863 85.1318 193.042 85.0732C193.198 85.0212 193.377 84.974 193.579 84.9316C193.784 84.8893 193.999 84.8682 194.224 84.8682C194.595 84.8682 194.902 84.9007 195.146 84.9658C195.391 85.0309 195.584 85.1302 195.728 85.2637C195.874 85.3939 195.975 85.5599 196.03 85.7617C196.089 85.9603 196.118 86.1963 196.118 86.4697V89.1943L196.528 89.6924V90H195.625L195.249 89.5654H195.073C195.057 89.5817 195.013 89.6191 194.941 89.6777C194.873 89.7331 194.784 89.7933 194.673 89.8584C194.565 89.9202 194.442 89.9756 194.302 90.0244C194.165 90.0732 194.019 90.0977 193.862 90.0977C193.618 90.0977 193.397 90.0618 193.198 89.9902C193 89.9154 192.829 89.8112 192.686 89.6777C192.546 89.541 192.437 89.3799 192.358 89.1943C192.284 89.0055 192.246 88.7988 192.246 88.5742ZM193.311 88.4863C193.311 88.6361 193.332 88.7614 193.374 88.8623C193.416 88.96 193.475 89.0381 193.55 89.0967C193.628 89.1553 193.721 89.196 193.828 89.2188C193.939 89.2415 194.061 89.2529 194.194 89.2529C194.318 89.2529 194.434 89.2383 194.541 89.209C194.652 89.1764 194.748 89.1406 194.829 89.1016C194.924 89.0592 195.011 89.0088 195.093 88.9502V87.6367L194.111 87.7002C193.958 87.71 193.83 87.736 193.726 87.7783C193.625 87.8206 193.543 87.876 193.481 87.9443C193.42 88.0127 193.376 88.0941 193.35 88.1885C193.324 88.2796 193.311 88.3789 193.311 88.4863ZM197.52 85.9033L197.134 85.5078V84.9561H198.032L198.452 85.3369L198.594 85.3076C198.617 85.2881 198.669 85.2539 198.75 85.2051C198.835 85.1562 198.937 85.1074 199.058 85.0586C199.181 85.0098 199.321 84.9674 199.478 84.9316C199.634 84.8926 199.798 84.873 199.971 84.873C200.244 84.873 200.487 84.9137 200.698 84.9951C200.913 85.0765 201.094 85.1937 201.24 85.3467C201.387 85.4964 201.497 85.6771 201.572 85.8887C201.647 86.1003 201.685 86.3379 201.685 86.6016V90H200.635V86.7041C200.635 86.3493 200.56 86.0889 200.41 85.9229C200.264 85.7536 200.029 85.6689 199.707 85.6689C199.548 85.6689 199.399 85.6836 199.263 85.7129C199.126 85.7389 199.006 85.7699 198.901 85.8057C198.781 85.8447 198.669 85.8903 198.564 85.9424V90H197.52V85.9033ZM205.85 82.9688H206.846V86.6846L206.797 87.3926L207.056 87.085L208.623 85.0098H209.805L208.218 87.0215L207.812 87.4072L208.13 87.6953L209.893 90H208.706L207.026 87.7441L206.797 87.4512L206.846 88.3398V90H205.85V82.9688ZM211.289 84.9561L211.792 85.4834C211.828 85.402 211.873 85.3255 211.929 85.2539C211.987 85.179 212.054 85.1139 212.129 85.0586C212.207 85.0033 212.293 84.9593 212.388 84.9268C212.485 84.8942 212.591 84.8779 212.705 84.8779C212.799 84.8779 212.891 84.8861 212.979 84.9023C213.066 84.9154 213.162 84.9398 213.267 84.9756C213.27 84.9821 213.273 85.0081 213.276 85.0537C213.283 85.0993 213.286 85.1562 213.286 85.2246C213.286 85.2767 213.283 85.3385 213.276 85.4102C213.27 85.4785 213.258 85.5501 213.242 85.625C213.229 85.6966 213.208 85.7682 213.179 85.8398C213.153 85.9115 213.118 85.9733 213.076 86.0254L212.983 86.0498C212.918 86.0173 212.845 85.9896 212.764 85.9668C212.686 85.944 212.604 85.9326 212.52 85.9326C212.389 85.9326 212.28 85.9424 212.192 85.9619C212.104 85.9782 212.033 85.9961 211.978 86.0156C211.912 86.0384 211.86 86.0645 211.821 86.0938V90H210.776V85.9033L210.391 85.5078V84.9561H211.289ZM214.678 84.165C214.587 84.165 214.5 84.1488 214.419 84.1162C214.341 84.0837 214.271 84.0397 214.209 83.9844C214.15 83.929 214.103 83.8656 214.067 83.7939C214.032 83.7191 214.014 83.6393 214.014 83.5547C214.014 83.4668 214.032 83.3854 214.067 83.3105C214.103 83.2357 214.15 83.1706 214.209 83.1152C214.271 83.0599 214.341 83.0176 214.419 82.9883C214.5 82.9557 214.587 82.9395 214.678 82.9395C214.769 82.9395 214.855 82.9557 214.937 82.9883C215.018 83.0176 215.088 83.0599 215.146 83.1152C215.208 83.1706 215.257 83.2357 215.293 83.3105C215.329 83.3854 215.347 83.4668 215.347 83.5547C215.347 83.6393 215.329 83.7191 215.293 83.7939C215.257 83.8656 215.208 83.929 215.146 83.9844C215.088 84.0397 215.018 84.0837 214.937 84.1162C214.855 84.1488 214.769 84.165 214.678 84.165ZM214.116 85.0098H215.132V89.1797L215.42 89.3848V90H215.142L215.132 89.9902V90C214.81 90 214.559 89.9349 214.38 89.8047C214.204 89.6745 214.116 89.4596 214.116 89.1602V85.0098ZM216.865 85.7666H216.226C216.222 85.7308 216.219 85.6917 216.216 85.6494C216.213 85.6136 216.209 85.5713 216.206 85.5225C216.206 85.4736 216.206 85.4199 216.206 85.3613C216.206 85.3027 216.208 85.249 216.211 85.2002C216.214 85.1481 216.219 85.0846 216.226 85.0098H216.865V84.2334L217.427 83.5986H217.861V85.0098H219.243C219.25 85.0423 219.255 85.0814 219.258 85.127C219.264 85.1725 219.268 85.2165 219.268 85.2588C219.268 85.3337 219.259 85.402 219.243 85.4639C219.23 85.5257 219.215 85.5794 219.199 85.625C219.18 85.6771 219.157 85.7243 219.131 85.7666H217.861V88.5986C217.861 88.8363 217.9 89.0088 217.979 89.1162C218.06 89.2236 218.188 89.2773 218.364 89.2773C218.439 89.2773 218.517 89.2692 218.599 89.2529C218.683 89.2334 218.763 89.2106 218.838 89.1846C218.923 89.1553 219.009 89.1227 219.097 89.0869C219.162 89.1715 219.212 89.2546 219.248 89.3359C219.287 89.4173 219.315 89.4906 219.331 89.5557C219.351 89.6305 219.362 89.7005 219.365 89.7656C219.274 89.8275 219.172 89.8828 219.058 89.9316C218.957 89.974 218.836 90.0114 218.696 90.0439C218.556 90.0798 218.395 90.0977 218.213 90.0977C217.959 90.0977 217.746 90.0651 217.573 90C217.404 89.9382 217.266 89.8454 217.158 89.7217C217.054 89.5947 216.979 89.4385 216.934 89.2529C216.888 89.0641 216.865 88.8477 216.865 88.6035V85.7666ZM219.985 87.5537C219.985 87.085 220.042 86.6813 220.156 86.3428C220.27 86.0042 220.43 85.7259 220.635 85.5078C220.84 85.2897 221.084 85.1302 221.367 85.0293C221.654 84.9251 221.968 84.873 222.31 84.873C222.625 84.873 222.907 84.9268 223.154 85.0342C223.405 85.1383 223.617 85.2865 223.789 85.4785C223.962 85.6706 224.093 85.9001 224.185 86.167C224.276 86.4339 224.321 86.7285 224.321 87.0508C224.321 87.1615 224.316 87.264 224.307 87.3584C224.297 87.4528 224.285 87.5342 224.272 87.6025C224.259 87.6839 224.245 87.7572 224.229 87.8223L221.025 87.8076C221.029 88.0973 221.06 88.3382 221.118 88.5303C221.177 88.7191 221.263 88.8688 221.377 88.9795C221.494 89.0902 221.641 89.1683 221.816 89.2139C221.992 89.2562 222.201 89.2773 222.441 89.2773C222.646 89.2773 222.83 89.2643 222.993 89.2383C223.156 89.2122 223.294 89.1813 223.408 89.1455C223.538 89.1064 223.656 89.0609 223.76 89.0088C223.809 89.1227 223.846 89.2285 223.872 89.3262C223.901 89.4238 223.923 89.5085 223.936 89.5801C223.949 89.6647 223.958 89.7396 223.965 89.8047C223.857 89.86 223.727 89.9089 223.574 89.9512C223.444 89.987 223.285 90.0195 223.096 90.0488C222.907 90.0814 222.689 90.0977 222.441 90.0977C222.051 90.0977 221.702 90.0537 221.396 89.9658C221.094 89.8779 220.837 89.7347 220.625 89.5361C220.417 89.3343 220.257 89.0723 220.146 88.75C220.039 88.4245 219.985 88.0257 219.985 87.5537ZM223.276 87.0947V86.9287C223.276 86.7236 223.25 86.543 223.198 86.3867C223.149 86.2272 223.081 86.0938 222.993 85.9863C222.905 85.8789 222.801 85.7975 222.681 85.7422C222.56 85.6868 222.43 85.6592 222.29 85.6592C222.085 85.6592 221.904 85.6868 221.748 85.7422C221.592 85.7943 221.46 85.8789 221.353 85.9961C221.248 86.11 221.17 86.2581 221.118 86.4404C221.066 86.6227 221.04 86.8408 221.04 87.0947H223.276ZM225.996 84.9561L226.499 85.4834C226.535 85.402 226.58 85.3255 226.636 85.2539C226.694 85.179 226.761 85.1139 226.836 85.0586C226.914 85.0033 227 84.9593 227.095 84.9268C227.192 84.8942 227.298 84.8779 227.412 84.8779C227.507 84.8779 227.598 84.8861 227.686 84.9023C227.773 84.9154 227.869 84.9398 227.974 84.9756C227.977 84.9821 227.98 85.0081 227.983 85.0537C227.99 85.0993 227.993 85.1562 227.993 85.2246C227.993 85.2767 227.99 85.3385 227.983 85.4102C227.977 85.4785 227.965 85.5501 227.949 85.625C227.936 85.6966 227.915 85.7682 227.886 85.8398C227.86 85.9115 227.826 85.9733 227.783 86.0254L227.69 86.0498C227.625 86.0173 227.552 85.9896 227.471 85.9668C227.393 85.944 227.311 85.9326 227.227 85.9326C227.096 85.9326 226.987 85.9424 226.899 85.9619C226.812 85.9782 226.74 85.9961 226.685 86.0156C226.619 86.0384 226.567 86.0645 226.528 86.0938V90H225.483V85.9033L225.098 85.5078V84.9561H225.996ZM229.385 84.165C229.294 84.165 229.207 84.1488 229.126 84.1162C229.048 84.0837 228.978 84.0397 228.916 83.9844C228.857 83.929 228.81 83.8656 228.774 83.7939C228.739 83.7191 228.721 83.6393 228.721 83.5547C228.721 83.4668 228.739 83.3854 228.774 83.3105C228.81 83.2357 228.857 83.1706 228.916 83.1152C228.978 83.0599 229.048 83.0176 229.126 82.9883C229.207 82.9557 229.294 82.9395 229.385 82.9395C229.476 82.9395 229.562 82.9557 229.644 82.9883C229.725 83.0176 229.795 83.0599 229.854 83.1152C229.915 83.1706 229.964 83.2357 230 83.3105C230.036 83.3854 230.054 83.4668 230.054 83.5547C230.054 83.6393 230.036 83.7191 230 83.7939C229.964 83.8656 229.915 83.929 229.854 83.9844C229.795 84.0397 229.725 84.0837 229.644 84.1162C229.562 84.1488 229.476 84.165 229.385 84.165ZM228.823 85.0098H229.839V89.1797L230.127 89.3848V90H229.849L229.839 89.9902V90C229.517 90 229.266 89.9349 229.087 89.8047C228.911 89.6745 228.823 89.4596 228.823 89.1602V85.0098ZM230.996 88.5742C230.996 88.304 231.035 88.0745 231.113 87.8857C231.191 87.6969 231.305 87.5423 231.455 87.4219C231.608 87.3014 231.792 87.2119 232.007 87.1533C232.225 87.0915 232.474 87.0524 232.754 87.0361L233.843 86.9775V86.5869C233.843 86.4111 233.826 86.2663 233.794 86.1523C233.765 86.0384 233.714 85.9473 233.643 85.8789C233.571 85.8105 233.475 85.7633 233.354 85.7373C233.237 85.708 233.091 85.6934 232.915 85.6934C232.739 85.6934 232.572 85.7129 232.412 85.752C232.256 85.791 232.119 85.8333 232.002 85.8789C231.862 85.9342 231.733 85.9961 231.616 86.0645C231.545 85.9635 231.488 85.8675 231.445 85.7764C231.403 85.682 231.37 85.5973 231.348 85.5225C231.318 85.4378 231.299 85.3564 231.289 85.2783C231.445 85.2002 231.613 85.1318 231.792 85.0732C231.948 85.0212 232.127 84.974 232.329 84.9316C232.534 84.8893 232.749 84.8682 232.974 84.8682C233.345 84.8682 233.652 84.9007 233.896 84.9658C234.141 85.0309 234.334 85.1302 234.478 85.2637C234.624 85.3939 234.725 85.5599 234.78 85.7617C234.839 85.9603 234.868 86.1963 234.868 86.4697V89.1943L235.278 89.6924V90H234.375L233.999 89.5654H233.823C233.807 89.5817 233.763 89.6191 233.691 89.6777C233.623 89.7331 233.534 89.7933 233.423 89.8584C233.315 89.9202 233.192 89.9756 233.052 90.0244C232.915 90.0732 232.769 90.0977 232.612 90.0977C232.368 90.0977 232.147 90.0618 231.948 89.9902C231.75 89.9154 231.579 89.8112 231.436 89.6777C231.296 89.541 231.187 89.3799 231.108 89.1943C231.034 89.0055 230.996 88.7988 230.996 88.5742ZM232.061 88.4863C232.061 88.6361 232.082 88.7614 232.124 88.8623C232.166 88.96 232.225 89.0381 232.3 89.0967C232.378 89.1553 232.471 89.196 232.578 89.2188C232.689 89.2415 232.811 89.2529 232.944 89.2529C233.068 89.2529 233.184 89.2383 233.291 89.209C233.402 89.1764 233.498 89.1406 233.579 89.1016C233.674 89.0592 233.761 89.0088 233.843 88.9502V87.6367L232.861 87.7002C232.708 87.71 232.58 87.736 232.476 87.7783C232.375 87.8206 232.293 87.876 232.231 87.9443C232.17 88.0127 232.126 88.0941 232.1 88.1885C232.074 88.2796 232.061 88.3789 232.061 88.4863ZM150.771 93.3691H151.875V100H150.771V93.3691ZM153.389 95.9033L153.003 95.5078V94.9561H153.901L154.321 95.3369L154.463 95.3076C154.486 95.2881 154.538 95.2539 154.619 95.2051C154.704 95.1562 154.806 95.1074 154.927 95.0586C155.05 95.0098 155.19 94.9674 155.347 94.9316C155.503 94.8926 155.667 94.873 155.84 94.873C156.113 94.873 156.356 94.9137 156.567 94.9951C156.782 95.0765 156.963 95.1937 157.109 95.3467C157.256 95.4964 157.367 95.6771 157.441 95.8887C157.516 96.1003 157.554 96.3379 157.554 96.6016V100H156.504V96.7041C156.504 96.3493 156.429 96.0889 156.279 95.9229C156.133 95.7536 155.898 95.6689 155.576 95.6689C155.417 95.6689 155.269 95.6836 155.132 95.7129C154.995 95.7389 154.875 95.7699 154.771 95.8057C154.65 95.8447 154.538 95.8903 154.434 95.9424V100H153.389V95.9033ZM159.258 95.7666H158.535C158.525 95.6885 158.519 95.6152 158.516 95.5469C158.512 95.4785 158.511 95.4167 158.511 95.3613C158.511 95.2604 158.516 95.1774 158.525 95.1123C158.529 95.0765 158.534 95.0423 158.54 95.0098H159.258V94.4727C159.258 94.2676 159.289 94.069 159.351 93.877C159.416 93.6816 159.513 93.5107 159.644 93.3643C159.777 93.2145 159.945 93.0957 160.146 93.0078C160.348 92.9167 160.589 92.8711 160.869 92.8711C161.006 92.8711 161.125 92.8776 161.226 92.8906C161.326 92.9036 161.413 92.9183 161.484 92.9346C161.569 92.9541 161.641 92.9753 161.699 92.998C161.693 93.0794 161.681 93.1641 161.665 93.252C161.649 93.3268 161.624 93.4131 161.592 93.5107C161.562 93.6051 161.522 93.7012 161.47 93.7988C161.421 93.7858 161.367 93.7728 161.309 93.7598C161.26 93.75 161.203 93.7402 161.138 93.7305C161.073 93.7207 161.007 93.7158 160.942 93.7158C160.721 93.7158 160.555 93.7777 160.444 93.9014C160.337 94.0218 160.283 94.222 160.283 94.502V95.0098H161.382C161.385 95.0228 161.388 95.0391 161.392 95.0586C161.395 95.0749 161.398 95.096 161.401 95.1221C161.405 95.1449 161.406 95.1725 161.406 95.2051C161.406 95.2702 161.396 95.3499 161.377 95.4443C161.361 95.5387 161.323 95.6462 161.265 95.7666H160.283V100H159.258V95.7666ZM162.021 97.5049C162.021 97.0752 162.078 96.696 162.192 96.3672C162.31 96.0384 162.472 95.7633 162.681 95.542C162.892 95.3206 163.143 95.153 163.433 95.0391C163.726 94.9251 164.048 94.8682 164.399 94.8682C164.761 94.8682 165.086 94.9219 165.376 95.0293C165.666 95.1335 165.911 95.293 166.113 95.5078C166.315 95.7227 166.47 95.9912 166.577 96.3135C166.685 96.6325 166.738 97.0068 166.738 97.4365C166.738 97.8662 166.683 98.2471 166.572 98.5791C166.465 98.9111 166.309 99.1895 166.104 99.4141C165.902 99.6387 165.656 99.8096 165.366 99.9268C165.08 100.041 164.757 100.098 164.399 100.098C164.028 100.098 163.695 100.044 163.398 99.9365C163.105 99.8258 162.856 99.6631 162.651 99.4482C162.45 99.2301 162.293 98.96 162.183 98.6377C162.075 98.3122 162.021 97.9346 162.021 97.5049ZM164.399 99.292C164.614 99.292 164.8 99.2464 164.956 99.1553C165.116 99.0609 165.246 98.9323 165.347 98.7695C165.448 98.6035 165.522 98.4082 165.571 98.1836C165.62 97.9557 165.645 97.7067 165.645 97.4365C165.645 96.8538 165.545 96.4095 165.347 96.1035C165.148 95.7975 164.832 95.6445 164.399 95.6445C164.181 95.6445 163.991 95.6917 163.828 95.7861C163.669 95.8773 163.535 96.0059 163.428 96.1719C163.324 96.3379 163.245 96.5348 163.193 96.7627C163.141 96.9906 163.115 97.238 163.115 97.5049C163.115 98.0941 163.219 98.54 163.428 98.8428C163.639 99.1423 163.963 99.292 164.399 99.292ZM168.398 94.9561L168.901 95.4834C168.937 95.402 168.983 95.3255 169.038 95.2539C169.097 95.179 169.163 95.1139 169.238 95.0586C169.316 95.0033 169.403 94.9593 169.497 94.9268C169.595 94.8942 169.701 94.8779 169.814 94.8779C169.909 94.8779 170 94.8861 170.088 94.9023C170.176 94.9154 170.272 94.9398 170.376 94.9756C170.379 94.9821 170.382 95.0081 170.386 95.0537C170.392 95.0993 170.396 95.1562 170.396 95.2246C170.396 95.2767 170.392 95.3385 170.386 95.4102C170.379 95.4785 170.368 95.5501 170.352 95.625C170.339 95.6966 170.317 95.7682 170.288 95.8398C170.262 95.9115 170.228 95.9733 170.186 96.0254L170.093 96.0498C170.028 96.0173 169.954 95.9896 169.873 95.9668C169.795 95.944 169.714 95.9326 169.629 95.9326C169.499 95.9326 169.39 95.9424 169.302 95.9619C169.214 95.9782 169.142 95.9961 169.087 96.0156C169.022 96.0384 168.97 96.0645 168.931 96.0938V100H167.886V95.9033L167.5 95.5078V94.9561H168.398ZM170.894 95.5078V94.9561H171.792L172.212 95.3809L172.344 95.3027C172.36 95.2865 172.407 95.2555 172.485 95.21C172.567 95.1611 172.668 95.1123 172.788 95.0635C172.909 95.0114 173.044 94.9658 173.193 94.9268C173.346 94.8877 173.501 94.8682 173.657 94.8682C173.947 94.8682 174.185 94.9105 174.37 94.9951C174.559 95.0798 174.723 95.2018 174.863 95.3613C174.915 95.319 174.992 95.2702 175.093 95.2148C175.194 95.1562 175.309 95.1009 175.439 95.0488C175.573 94.9967 175.716 94.9544 175.869 94.9219C176.022 94.8861 176.177 94.8682 176.333 94.8682C176.606 94.8682 176.855 94.9089 177.08 94.9902C177.308 95.0716 177.502 95.1888 177.661 95.3418C177.824 95.4915 177.949 95.6722 178.037 95.8838C178.128 96.0954 178.174 96.333 178.174 96.5967V100H177.124V96.6992C177.124 96.3477 177.03 96.0872 176.841 95.918C176.652 95.7487 176.395 95.6641 176.069 95.6641C175.877 95.6641 175.697 95.6803 175.527 95.7129C175.361 95.7422 175.238 95.7747 175.156 95.8105C175.202 95.9147 175.238 96.0254 175.264 96.1426C175.29 96.2598 175.303 96.3786 175.303 96.499V100H174.253V96.6016C174.253 96.2858 174.188 96.0514 174.058 95.8984C173.927 95.7422 173.704 95.6641 173.389 95.6641C173.239 95.6641 173.099 95.6787 172.969 95.708C172.839 95.734 172.726 95.765 172.632 95.8008C172.521 95.8398 172.419 95.8838 172.324 95.9326V100H171.279V95.9033L170.894 95.5078ZM179.189 98.5742C179.189 98.304 179.229 98.0745 179.307 97.8857C179.385 97.6969 179.499 97.5423 179.648 97.4219C179.801 97.3014 179.985 97.2119 180.2 97.1533C180.418 97.0915 180.667 97.0524 180.947 97.0361L182.036 96.9775V96.5869C182.036 96.4111 182.02 96.2663 181.987 96.1523C181.958 96.0384 181.908 95.9473 181.836 95.8789C181.764 95.8105 181.668 95.7633 181.548 95.7373C181.431 95.708 181.284 95.6934 181.108 95.6934C180.933 95.6934 180.765 95.7129 180.605 95.752C180.449 95.791 180.312 95.8333 180.195 95.8789C180.055 95.9342 179.927 95.9961 179.81 96.0645C179.738 95.9635 179.681 95.8675 179.639 95.7764C179.596 95.682 179.564 95.5973 179.541 95.5225C179.512 95.4378 179.492 95.3564 179.482 95.2783C179.639 95.2002 179.806 95.1318 179.985 95.0732C180.142 95.0212 180.321 94.974 180.522 94.9316C180.728 94.8893 180.942 94.8682 181.167 94.8682C181.538 94.8682 181.846 94.9007 182.09 94.9658C182.334 95.0309 182.528 95.1302 182.671 95.2637C182.817 95.3939 182.918 95.5599 182.974 95.7617C183.032 95.9603 183.062 96.1963 183.062 96.4697V99.1943L183.472 99.6924V100H182.568L182.192 99.5654H182.017C182 99.5817 181.956 99.6191 181.885 99.6777C181.816 99.7331 181.727 99.7933 181.616 99.8584C181.509 99.9202 181.385 99.9756 181.245 100.024C181.108 100.073 180.962 100.098 180.806 100.098C180.562 100.098 180.34 100.062 180.142 99.9902C179.943 99.9154 179.772 99.8112 179.629 99.6777C179.489 99.541 179.38 99.3799 179.302 99.1943C179.227 99.0055 179.189 98.7988 179.189 98.5742ZM180.254 98.4863C180.254 98.6361 180.275 98.7614 180.317 98.8623C180.36 98.96 180.418 99.0381 180.493 99.0967C180.571 99.1553 180.664 99.196 180.771 99.2188C180.882 99.2415 181.004 99.2529 181.138 99.2529C181.261 99.2529 181.377 99.2383 181.484 99.209C181.595 99.1764 181.691 99.1406 181.772 99.1016C181.867 99.0592 181.955 99.0088 182.036 98.9502V97.6367L181.055 97.7002C180.902 97.71 180.773 97.736 180.669 97.7783C180.568 97.8206 180.487 97.876 180.425 97.9443C180.363 98.0127 180.319 98.0941 180.293 98.1885C180.267 98.2796 180.254 98.3789 180.254 98.4863ZM184.141 99.7754C184.141 99.7005 184.147 99.6191 184.16 99.5312C184.17 99.4564 184.185 99.3717 184.204 99.2773C184.227 99.1797 184.259 99.0788 184.302 98.9746C184.445 99.0299 184.595 99.0788 184.751 99.1211C184.884 99.1569 185.029 99.1911 185.186 99.2236C185.342 99.2529 185.496 99.2676 185.649 99.2676C185.786 99.2676 185.913 99.2627 186.03 99.2529C186.147 99.2432 186.248 99.2171 186.333 99.1748C186.421 99.1292 186.489 99.0625 186.538 98.9746C186.587 98.8835 186.611 98.7581 186.611 98.5986C186.611 98.4066 186.551 98.2552 186.431 98.1445C186.313 98.0339 186.108 97.9508 185.815 97.8955C185.513 97.8369 185.257 97.7588 185.049 97.6611C184.844 97.5635 184.676 97.4512 184.546 97.3242C184.419 97.194 184.326 97.0492 184.268 96.8896C184.212 96.7301 184.185 96.5592 184.185 96.377C184.185 96.1035 184.229 95.8708 184.316 95.6787C184.404 95.4867 184.531 95.332 184.697 95.2148C184.867 95.0944 185.075 95.0081 185.322 94.9561C185.573 94.9007 185.859 94.873 186.182 94.873C186.406 94.873 186.605 94.8893 186.777 94.9219C186.953 94.9512 187.1 94.9837 187.217 95.0195C187.354 95.0618 187.472 95.1107 187.573 95.166C187.563 95.2376 187.546 95.3158 187.52 95.4004C187.497 95.472 187.466 95.5534 187.427 95.6445C187.391 95.7357 187.342 95.8285 187.28 95.9229C187.192 95.8708 187.091 95.8252 186.978 95.7861C186.88 95.7503 186.763 95.7194 186.626 95.6934C186.489 95.6641 186.333 95.6494 186.157 95.6494C186.021 95.6494 185.894 95.6559 185.776 95.6689C185.662 95.682 185.563 95.7113 185.479 95.7568C185.397 95.8024 185.334 95.8724 185.288 95.9668C185.243 96.0579 185.22 96.1833 185.22 96.3428C185.22 96.4209 185.229 96.4925 185.249 96.5576C185.272 96.6195 185.314 96.6764 185.376 96.7285C185.441 96.7806 185.531 96.8294 185.645 96.875C185.762 96.9173 185.916 96.9596 186.108 97.002C186.408 97.0671 186.657 97.1419 186.855 97.2266C187.057 97.3112 187.217 97.4137 187.334 97.5342C187.454 97.6546 187.539 97.7962 187.588 97.959C187.64 98.1185 187.666 98.3089 187.666 98.5303C187.666 98.7679 187.629 98.9827 187.554 99.1748C187.479 99.3669 187.362 99.5312 187.202 99.668C187.043 99.8047 186.838 99.9105 186.587 99.9854C186.336 100.06 186.034 100.098 185.679 100.098C185.451 100.098 185.243 100.081 185.054 100.049C184.868 100.016 184.707 99.9788 184.57 99.9365C184.411 99.891 184.268 99.8372 184.141 99.7754ZM189.424 94.165C189.333 94.165 189.246 94.1488 189.165 94.1162C189.087 94.0837 189.017 94.0397 188.955 93.9844C188.896 93.929 188.849 93.8656 188.813 93.7939C188.778 93.7191 188.76 93.6393 188.76 93.5547C188.76 93.4668 188.778 93.3854 188.813 93.3105C188.849 93.2357 188.896 93.1706 188.955 93.1152C189.017 93.0599 189.087 93.0176 189.165 92.9883C189.246 92.9557 189.333 92.9395 189.424 92.9395C189.515 92.9395 189.601 92.9557 189.683 92.9883C189.764 93.0176 189.834 93.0599 189.893 93.1152C189.954 93.1706 190.003 93.2357 190.039 93.3105C190.075 93.3854 190.093 93.4668 190.093 93.5547C190.093 93.6393 190.075 93.7191 190.039 93.7939C190.003 93.8656 189.954 93.929 189.893 93.9844C189.834 94.0397 189.764 94.0837 189.683 94.1162C189.601 94.1488 189.515 94.165 189.424 94.165ZM188.862 95.0098H189.878V99.1797L190.166 99.3848V100H189.888L189.878 99.9902V100C189.556 100 189.305 99.9349 189.126 99.8047C188.95 99.6745 188.862 99.4596 188.862 99.1602V95.0098ZM194.297 93.3691H195.405V99.082C195.542 99.082 195.684 99.0804 195.83 99.0771C195.98 99.0739 196.128 99.0706 196.274 99.0674C196.424 99.0641 196.569 99.0609 196.709 99.0576C196.852 99.0511 196.987 99.0446 197.114 99.0381C197.414 99.0251 197.707 99.012 197.993 98.999C197.993 99.0544 197.985 99.1374 197.969 99.248C197.956 99.3587 197.939 99.471 197.92 99.585C197.9 99.6956 197.881 99.7933 197.861 99.8779C197.845 99.9593 197.832 100 197.822 100H194.297V93.3691ZM198.691 98.5742C198.691 98.304 198.73 98.0745 198.809 97.8857C198.887 97.6969 199.001 97.5423 199.15 97.4219C199.303 97.3014 199.487 97.2119 199.702 97.1533C199.92 97.0915 200.169 97.0524 200.449 97.0361L201.538 96.9775V96.5869C201.538 96.4111 201.522 96.2663 201.489 96.1523C201.46 96.0384 201.41 95.9473 201.338 95.8789C201.266 95.8105 201.17 95.7633 201.05 95.7373C200.933 95.708 200.786 95.6934 200.61 95.6934C200.435 95.6934 200.267 95.7129 200.107 95.752C199.951 95.791 199.814 95.8333 199.697 95.8789C199.557 95.9342 199.429 95.9961 199.312 96.0645C199.24 95.9635 199.183 95.8675 199.141 95.7764C199.098 95.682 199.066 95.5973 199.043 95.5225C199.014 95.4378 198.994 95.3564 198.984 95.2783C199.141 95.2002 199.308 95.1318 199.487 95.0732C199.644 95.0212 199.823 94.974 200.024 94.9316C200.229 94.8893 200.444 94.8682 200.669 94.8682C201.04 94.8682 201.348 94.9007 201.592 94.9658C201.836 95.0309 202.03 95.1302 202.173 95.2637C202.319 95.3939 202.42 95.5599 202.476 95.7617C202.534 95.9603 202.563 96.1963 202.563 96.4697V99.1943L202.974 99.6924V100H202.07L201.694 99.5654H201.519C201.502 99.5817 201.458 99.6191 201.387 99.6777C201.318 99.7331 201.229 99.7933 201.118 99.8584C201.011 99.9202 200.887 99.9756 200.747 100.024C200.61 100.073 200.464 100.098 200.308 100.098C200.063 100.098 199.842 100.062 199.644 99.9902C199.445 99.9154 199.274 99.8112 199.131 99.6777C198.991 99.541 198.882 99.3799 198.804 99.1943C198.729 99.0055 198.691 98.7988 198.691 98.5742ZM199.756 98.4863C199.756 98.6361 199.777 98.7614 199.819 98.8623C199.862 98.96 199.92 99.0381 199.995 99.0967C200.073 99.1553 200.166 99.196 200.273 99.2188C200.384 99.2415 200.506 99.2529 200.64 99.2529C200.763 99.2529 200.879 99.2383 200.986 99.209C201.097 99.1764 201.193 99.1406 201.274 99.1016C201.369 99.0592 201.457 99.0088 201.538 98.9502V97.6367L200.557 97.7002C200.404 97.71 200.275 97.736 200.171 97.7783C200.07 97.8206 199.989 97.876 199.927 97.9443C199.865 98.0127 199.821 98.0941 199.795 98.1885C199.769 98.2796 199.756 98.3789 199.756 98.4863ZM203.345 95.0098H204.443L205.396 98.6572L205.605 99.6338L205.82 98.6572L206.802 95.0098H207.935L205.713 102.275H204.653L205.469 100H204.844L203.345 95.0098ZM208.311 98.5742C208.311 98.304 208.35 98.0745 208.428 97.8857C208.506 97.6969 208.62 97.5423 208.77 97.4219C208.923 97.3014 209.106 97.2119 209.321 97.1533C209.539 97.0915 209.788 97.0524 210.068 97.0361L211.157 96.9775V96.5869C211.157 96.4111 211.141 96.2663 211.108 96.1523C211.079 96.0384 211.029 95.9473 210.957 95.8789C210.885 95.8105 210.789 95.7633 210.669 95.7373C210.552 95.708 210.405 95.6934 210.229 95.6934C210.054 95.6934 209.886 95.7129 209.727 95.752C209.57 95.791 209.434 95.8333 209.316 95.8789C209.176 95.9342 209.048 95.9961 208.931 96.0645C208.859 95.9635 208.802 95.8675 208.76 95.7764C208.717 95.682 208.685 95.5973 208.662 95.5225C208.633 95.4378 208.613 95.3564 208.604 95.2783C208.76 95.2002 208.927 95.1318 209.106 95.0732C209.263 95.0212 209.442 94.974 209.644 94.9316C209.849 94.8893 210.063 94.8682 210.288 94.8682C210.659 94.8682 210.967 94.9007 211.211 94.9658C211.455 95.0309 211.649 95.1302 211.792 95.2637C211.938 95.3939 212.039 95.5599 212.095 95.7617C212.153 95.9603 212.183 96.1963 212.183 96.4697V99.1943L212.593 99.6924V100H211.689L211.313 99.5654H211.138C211.121 99.5817 211.077 99.6191 211.006 99.6777C210.938 99.7331 210.848 99.7933 210.737 99.8584C210.63 99.9202 210.506 99.9756 210.366 100.024C210.229 100.073 210.083 100.098 209.927 100.098C209.683 100.098 209.461 100.062 209.263 99.9902C209.064 99.9154 208.893 99.8112 208.75 99.6777C208.61 99.541 208.501 99.3799 208.423 99.1943C208.348 99.0055 208.311 98.7988 208.311 98.5742ZM209.375 98.4863C209.375 98.6361 209.396 98.7614 209.438 98.8623C209.481 98.96 209.539 99.0381 209.614 99.0967C209.692 99.1553 209.785 99.196 209.893 99.2188C210.003 99.2415 210.125 99.2529 210.259 99.2529C210.382 99.2529 210.498 99.2383 210.605 99.209C210.716 99.1764 210.812 99.1406 210.894 99.1016C210.988 99.0592 211.076 99.0088 211.157 98.9502V97.6367L210.176 97.7002C210.023 97.71 209.894 97.736 209.79 97.7783C209.689 97.8206 209.608 97.876 209.546 97.9443C209.484 98.0127 209.44 98.0941 209.414 98.1885C209.388 98.2796 209.375 98.3789 209.375 98.4863ZM213.506 92.9688H214.502V96.6846L214.453 97.3926L214.712 97.085L216.279 95.0098H217.461L215.874 97.0215L215.469 97.4072L215.786 97.6953L217.549 100H216.362L214.683 97.7441L214.453 97.4512L214.502 98.3398V100H213.506V92.9688ZM222.334 93.3691H223.999L225.981 100H224.873L224.268 97.9736H222.124L221.548 100H220.41L222.334 93.3691ZM224.038 97.124L223.145 93.8721L222.339 97.124H224.038ZM226.68 95.9033L226.294 95.5078V94.9561H227.192L227.612 95.3369L227.754 95.3076C227.777 95.2881 227.829 95.2539 227.91 95.2051C227.995 95.1562 228.097 95.1074 228.218 95.0586C228.341 95.0098 228.481 94.9674 228.638 94.9316C228.794 94.8926 228.958 94.873 229.131 94.873C229.404 94.873 229.647 94.9137 229.858 94.9951C230.073 95.0765 230.254 95.1937 230.4 95.3467C230.547 95.4964 230.658 95.6771 230.732 95.8887C230.807 96.1003 230.845 96.3379 230.845 96.6016V100H229.795V96.7041C229.795 96.3493 229.72 96.0889 229.57 95.9229C229.424 95.7536 229.189 95.6689 228.867 95.6689C228.708 95.6689 228.56 95.6836 228.423 95.7129C228.286 95.7389 228.166 95.7699 228.062 95.8057C227.941 95.8447 227.829 95.8903 227.725 95.9424V100H226.68V95.9033ZM231.855 98.5742C231.855 98.304 231.895 98.0745 231.973 97.8857C232.051 97.6969 232.165 97.5423 232.314 97.4219C232.467 97.3014 232.651 97.2119 232.866 97.1533C233.084 97.0915 233.333 97.0524 233.613 97.0361L234.702 96.9775V96.5869C234.702 96.4111 234.686 96.2663 234.653 96.1523C234.624 96.0384 234.574 95.9473 234.502 95.8789C234.43 95.8105 234.334 95.7633 234.214 95.7373C234.097 95.708 233.95 95.6934 233.774 95.6934C233.599 95.6934 233.431 95.7129 233.271 95.752C233.115 95.791 232.979 95.8333 232.861 95.8789C232.721 95.9342 232.593 95.9961 232.476 96.0645C232.404 95.9635 232.347 95.8675 232.305 95.7764C232.262 95.682 232.23 95.5973 232.207 95.5225C232.178 95.4378 232.158 95.3564 232.148 95.2783C232.305 95.2002 232.472 95.1318 232.651 95.0732C232.808 95.0212 232.987 94.974 233.188 94.9316C233.394 94.8893 233.608 94.8682 233.833 94.8682C234.204 94.8682 234.512 94.9007 234.756 94.9658C235 95.0309 235.194 95.1302 235.337 95.2637C235.483 95.3939 235.584 95.5599 235.64 95.7617C235.698 95.9603 235.728 96.1963 235.728 96.4697V99.1943L236.138 99.6924V100H235.234L234.858 99.5654H234.683C234.666 99.5817 234.622 99.6191 234.551 99.6777C234.482 99.7331 234.393 99.7933 234.282 99.8584C234.175 99.9202 234.051 99.9756 233.911 100.024C233.774 100.073 233.628 100.098 233.472 100.098C233.228 100.098 233.006 100.062 232.808 99.9902C232.609 99.9154 232.438 99.8112 232.295 99.6777C232.155 99.541 232.046 99.3799 231.968 99.1943C231.893 99.0055 231.855 98.7988 231.855 98.5742ZM232.92 98.4863C232.92 98.6361 232.941 98.7614 232.983 98.8623C233.026 98.96 233.084 99.0381 233.159 99.0967C233.237 99.1553 233.33 99.196 233.438 99.2188C233.548 99.2415 233.67 99.2529 233.804 99.2529C233.927 99.2529 234.043 99.2383 234.15 99.209C234.261 99.1764 234.357 99.1406 234.438 99.1016C234.533 99.0592 234.621 99.0088 234.702 98.9502V97.6367L233.721 97.7002C233.568 97.71 233.439 97.736 233.335 97.7783C233.234 97.8206 233.153 97.876 233.091 97.9443C233.029 98.0127 232.985 98.0941 232.959 98.1885C232.933 98.2796 232.92 98.3789 232.92 98.4863ZM237.051 92.9688H238.047V96.6846L237.998 97.3926L238.257 97.085L239.824 95.0098H241.006L239.419 97.0215L239.014 97.4072L239.331 97.6953L241.094 100H239.907L238.228 97.7441L237.998 97.4512L238.047 98.3398V100H237.051V92.9688ZM241.436 99.3262C241.436 99.235 241.453 99.1488 241.489 99.0674C241.528 98.986 241.58 98.9144 241.646 98.8525C241.711 98.7907 241.787 98.7435 241.875 98.7109C241.963 98.6751 242.057 98.6572 242.158 98.6572C242.259 98.6572 242.354 98.6751 242.441 98.7109C242.529 98.7435 242.606 98.7907 242.671 98.8525C242.736 98.9144 242.786 98.986 242.822 99.0674C242.861 99.1488 242.881 99.235 242.881 99.3262C242.881 99.4206 242.861 99.5101 242.822 99.5947C242.786 99.6761 242.736 99.7477 242.671 99.8096C242.606 99.8682 242.529 99.9154 242.441 99.9512C242.354 99.987 242.259 100.005 242.158 100.005C242.057 100.005 241.963 99.987 241.875 99.9512C241.787 99.9154 241.711 99.8682 241.646 99.8096C241.58 99.7477 241.528 99.6761 241.489 99.5947C241.453 99.5101 241.436 99.4206 241.436 99.3262Z" fill="black"/>
<rect x="149" y="112" width="114" height="26" rx="13" fill="url(#paint8_linear_60_2)"/>
<path d="M181.926 121.043H183.256V127.898C183.42 127.898 183.59 127.896 183.766 127.893C183.945 127.889 184.123 127.885 184.299 127.881C184.479 127.877 184.652 127.873 184.82 127.869C184.992 127.861 185.154 127.854 185.307 127.846C185.666 127.83 186.018 127.814 186.361 127.799C186.361 127.865 186.352 127.965 186.332 128.098C186.316 128.23 186.297 128.365 186.273 128.502C186.25 128.635 186.227 128.752 186.203 128.854C186.184 128.951 186.168 129 186.156 129H181.926V121.043ZM187.199 127.289C187.199 126.965 187.246 126.689 187.34 126.463C187.434 126.236 187.57 126.051 187.75 125.906C187.934 125.762 188.154 125.654 188.412 125.584C188.674 125.51 188.973 125.463 189.309 125.443L190.615 125.373V124.904C190.615 124.693 190.596 124.52 190.557 124.383C190.521 124.246 190.461 124.137 190.375 124.055C190.289 123.973 190.174 123.916 190.029 123.885C189.889 123.85 189.713 123.832 189.502 123.832C189.291 123.832 189.09 123.855 188.898 123.902C188.711 123.949 188.547 124 188.406 124.055C188.238 124.121 188.084 124.195 187.943 124.277C187.857 124.156 187.789 124.041 187.738 123.932C187.688 123.818 187.648 123.717 187.621 123.627C187.586 123.525 187.562 123.428 187.551 123.334C187.738 123.24 187.939 123.158 188.154 123.088C188.342 123.025 188.557 122.969 188.799 122.918C189.045 122.867 189.303 122.842 189.572 122.842C190.018 122.842 190.387 122.881 190.68 122.959C190.973 123.037 191.205 123.156 191.377 123.316C191.553 123.473 191.674 123.672 191.74 123.914C191.811 124.152 191.846 124.436 191.846 124.764V128.033L192.338 128.631V129H191.254L190.803 128.479H190.592C190.572 128.498 190.52 128.543 190.434 128.613C190.352 128.68 190.244 128.752 190.111 128.83C189.982 128.904 189.834 128.971 189.666 129.029C189.502 129.088 189.326 129.117 189.139 129.117C188.846 129.117 188.58 129.074 188.342 128.988C188.104 128.898 187.898 128.773 187.727 128.613C187.559 128.449 187.428 128.256 187.334 128.033C187.244 127.807 187.199 127.559 187.199 127.289ZM188.477 127.184C188.477 127.363 188.502 127.514 188.553 127.635C188.604 127.752 188.674 127.846 188.764 127.916C188.857 127.986 188.969 128.035 189.098 128.062C189.23 128.09 189.377 128.104 189.537 128.104C189.686 128.104 189.824 128.086 189.953 128.051C190.086 128.012 190.201 127.969 190.299 127.922C190.412 127.871 190.518 127.811 190.615 127.74V126.164L189.438 126.24C189.254 126.252 189.1 126.283 188.975 126.334C188.854 126.385 188.756 126.451 188.682 126.533C188.607 126.615 188.555 126.713 188.523 126.826C188.492 126.936 188.477 127.055 188.477 127.184ZM194.67 131.373H193.416V123.791L192.953 123.316V122.947H194.025L194.488 123.352L194.705 123.363C194.729 123.34 194.779 123.301 194.857 123.246C194.939 123.188 195.047 123.129 195.18 123.07C195.312 123.008 195.471 122.955 195.654 122.912C195.838 122.865 196.043 122.842 196.27 122.842C196.559 122.842 196.84 122.889 197.113 122.982C197.391 123.076 197.635 123.238 197.846 123.469C198.061 123.699 198.232 124.012 198.361 124.406C198.49 124.797 198.555 125.291 198.555 125.889C198.555 126.404 198.475 126.863 198.314 127.266C198.158 127.668 197.947 128.006 197.682 128.279C197.416 128.553 197.105 128.762 196.75 128.906C196.398 129.047 196.027 129.117 195.637 129.117C195.535 129.117 195.426 129.113 195.309 129.105C195.195 129.098 195.092 129.088 194.998 129.076C194.885 129.064 194.775 129.051 194.67 129.035V131.373ZM194.67 128.133C194.736 128.152 194.826 128.17 194.939 128.186C195.053 128.201 195.178 128.209 195.314 128.209C195.607 128.209 195.873 128.154 196.111 128.045C196.35 127.932 196.551 127.775 196.715 127.576C196.883 127.373 197.012 127.129 197.102 126.844C197.195 126.559 197.242 126.24 197.242 125.889C197.242 125.455 197.203 125.104 197.125 124.834C197.051 124.561 196.941 124.348 196.797 124.195C196.656 124.039 196.484 123.934 196.281 123.879C196.078 123.824 195.852 123.797 195.602 123.797C195.492 123.797 195.383 123.814 195.273 123.85C195.164 123.881 195.064 123.918 194.975 123.961C194.869 124.008 194.768 124.061 194.67 124.119V128.133ZM199.469 126.006C199.469 125.49 199.537 125.035 199.674 124.641C199.814 124.246 200.01 123.916 200.26 123.65C200.514 123.385 200.814 123.184 201.162 123.047C201.514 122.91 201.9 122.842 202.322 122.842C202.756 122.842 203.146 122.906 203.494 123.035C203.842 123.16 204.137 123.352 204.379 123.609C204.621 123.867 204.807 124.189 204.936 124.576C205.064 124.959 205.129 125.408 205.129 125.924C205.129 126.439 205.062 126.896 204.93 127.295C204.801 127.693 204.613 128.027 204.367 128.297C204.125 128.566 203.83 128.771 203.482 128.912C203.139 129.049 202.752 129.117 202.322 129.117C201.877 129.117 201.477 129.053 201.121 128.924C200.77 128.791 200.471 128.596 200.225 128.338C199.982 128.076 199.795 127.752 199.662 127.365C199.533 126.975 199.469 126.521 199.469 126.006ZM202.322 128.15C202.58 128.15 202.803 128.096 202.99 127.986C203.182 127.873 203.338 127.719 203.459 127.523C203.58 127.324 203.67 127.09 203.729 126.82C203.787 126.547 203.816 126.248 203.816 125.924C203.816 125.225 203.697 124.691 203.459 124.324C203.221 123.957 202.842 123.773 202.322 123.773C202.061 123.773 201.832 123.83 201.637 123.943C201.445 124.053 201.285 124.207 201.156 124.406C201.031 124.605 200.938 124.842 200.875 125.115C200.812 125.389 200.781 125.686 200.781 126.006C200.781 126.713 200.906 127.248 201.156 127.611C201.41 127.971 201.799 128.15 202.322 128.15ZM207.121 122.947L207.725 123.58C207.768 123.482 207.822 123.391 207.889 123.305C207.959 123.215 208.039 123.137 208.129 123.07C208.223 123.004 208.326 122.951 208.439 122.912C208.557 122.873 208.684 122.854 208.82 122.854C208.934 122.854 209.043 122.863 209.148 122.883C209.254 122.898 209.369 122.928 209.494 122.971C209.498 122.979 209.502 123.01 209.506 123.064C209.514 123.119 209.518 123.188 209.518 123.27C209.518 123.332 209.514 123.406 209.506 123.492C209.498 123.574 209.484 123.66 209.465 123.75C209.449 123.836 209.424 123.922 209.389 124.008C209.357 124.094 209.316 124.168 209.266 124.23L209.154 124.26C209.076 124.221 208.988 124.188 208.891 124.16C208.797 124.133 208.699 124.119 208.598 124.119C208.441 124.119 208.311 124.131 208.205 124.154C208.1 124.174 208.014 124.195 207.947 124.219C207.869 124.246 207.807 124.277 207.76 124.312V129H206.506V124.084L206.043 123.609V122.947H207.121ZM210.484 120.562H211.68V125.021L211.621 125.871L211.932 125.502L213.812 123.012H215.23L213.326 125.426L212.84 125.889L213.221 126.234L215.336 129H213.912L211.896 126.293L211.621 125.941L211.68 127.008V129H210.484V120.562ZM215.84 127.289C215.84 126.965 215.887 126.689 215.98 126.463C216.074 126.236 216.211 126.051 216.391 125.906C216.574 125.762 216.795 125.654 217.053 125.584C217.314 125.51 217.613 125.463 217.949 125.443L219.256 125.373V124.904C219.256 124.693 219.236 124.52 219.197 124.383C219.162 124.246 219.102 124.137 219.016 124.055C218.93 123.973 218.814 123.916 218.67 123.885C218.529 123.85 218.354 123.832 218.143 123.832C217.932 123.832 217.73 123.855 217.539 123.902C217.352 123.949 217.188 124 217.047 124.055C216.879 124.121 216.725 124.195 216.584 124.277C216.498 124.156 216.43 124.041 216.379 123.932C216.328 123.818 216.289 123.717 216.262 123.627C216.227 123.525 216.203 123.428 216.191 123.334C216.379 123.24 216.58 123.158 216.795 123.088C216.982 123.025 217.197 122.969 217.439 122.918C217.686 122.867 217.943 122.842 218.213 122.842C218.658 122.842 219.027 122.881 219.32 122.959C219.613 123.037 219.846 123.156 220.018 123.316C220.193 123.473 220.314 123.672 220.381 123.914C220.451 124.152 220.486 124.436 220.486 124.764V128.033L220.979 128.631V129H219.895L219.443 128.479H219.232C219.213 128.498 219.16 128.543 219.074 128.613C218.992 128.68 218.885 128.752 218.752 128.83C218.623 128.904 218.475 128.971 218.307 129.029C218.143 129.088 217.967 129.117 217.779 129.117C217.486 129.117 217.221 129.074 216.982 128.988C216.744 128.898 216.539 128.773 216.367 128.613C216.199 128.449 216.068 128.256 215.975 128.033C215.885 127.807 215.84 127.559 215.84 127.289ZM217.117 127.184C217.117 127.363 217.143 127.514 217.193 127.635C217.244 127.752 217.314 127.846 217.404 127.916C217.498 127.986 217.609 128.035 217.738 128.062C217.871 128.09 218.018 128.104 218.178 128.104C218.326 128.104 218.465 128.086 218.594 128.051C218.727 128.012 218.842 127.969 218.939 127.922C219.053 127.871 219.158 127.811 219.256 127.74V126.164L218.078 126.24C217.895 126.252 217.74 126.283 217.615 126.334C217.494 126.385 217.396 126.451 217.322 126.533C217.248 126.615 217.195 126.713 217.164 126.826C217.133 126.936 217.117 127.055 217.117 127.184ZM222.168 124.084L221.705 123.609V122.947H222.783L223.287 123.404L223.457 123.369C223.484 123.346 223.547 123.305 223.645 123.246C223.746 123.188 223.869 123.129 224.014 123.07C224.162 123.012 224.33 122.961 224.518 122.918C224.705 122.871 224.902 122.848 225.109 122.848C225.438 122.848 225.729 122.896 225.982 122.994C226.24 123.092 226.457 123.232 226.633 123.416C226.809 123.596 226.941 123.812 227.031 124.066C227.121 124.32 227.166 124.605 227.166 124.922V129H225.906V125.045C225.906 124.619 225.816 124.307 225.637 124.107C225.461 123.904 225.18 123.803 224.793 123.803C224.602 123.803 224.424 123.82 224.26 123.855C224.096 123.887 223.951 123.924 223.826 123.967C223.682 124.014 223.547 124.068 223.422 124.131V129H222.168V124.084ZM228.578 128.191C228.578 128.082 228.6 127.979 228.643 127.881C228.689 127.783 228.752 127.697 228.83 127.623C228.908 127.549 229 127.492 229.105 127.453C229.211 127.41 229.324 127.389 229.445 127.389C229.566 127.389 229.68 127.41 229.785 127.453C229.891 127.492 229.982 127.549 230.061 127.623C230.139 127.697 230.199 127.783 230.242 127.881C230.289 127.979 230.312 128.082 230.312 128.191C230.312 128.305 230.289 128.412 230.242 128.514C230.199 128.611 230.139 128.697 230.061 128.771C229.982 128.842 229.891 128.898 229.785 128.941C229.68 128.984 229.566 129.006 229.445 129.006C229.324 129.006 229.211 128.984 229.105 128.941C229 128.898 228.908 128.842 228.83 128.771C228.752 128.697 228.689 128.611 228.643 128.514C228.6 128.412 228.578 128.305 228.578 128.191ZM229.041 126.598C228.986 125.941 228.938 125.277 228.895 124.605C228.875 124.32 228.857 124.02 228.842 123.703C228.826 123.387 228.811 123.066 228.795 122.742C228.783 122.418 228.773 122.098 228.766 121.781C228.758 121.461 228.754 121.156 228.754 120.867C228.82 120.859 228.891 120.852 228.965 120.844C229.031 120.836 229.104 120.83 229.182 120.826C229.26 120.818 229.342 120.814 229.428 120.814C229.518 120.814 229.604 120.818 229.686 120.826C229.771 120.83 229.848 120.836 229.914 120.844C229.988 120.852 230.061 120.859 230.131 120.867C230.131 121.18 230.127 121.502 230.119 121.834C230.111 122.162 230.102 122.49 230.09 122.818C230.078 123.146 230.064 123.467 230.049 123.779C230.033 124.092 230.018 124.389 230.002 124.67C229.963 125.33 229.92 125.975 229.873 126.604C229.85 126.615 229.807 126.631 229.744 126.65C229.686 126.666 229.592 126.674 229.463 126.674C229.396 126.674 229.322 126.666 229.24 126.65C229.162 126.635 229.096 126.617 229.041 126.598Z" fill="white"/>
<rect x="149" y="112" width="114" height="26" rx="13" fill="url(#paint9_linear_60_2)"/>
<path d="M172.273 126.012L169.883 121.043H171.312L172.584 124.02L172.924 125.051L173.264 124.025L174.553 121.043H175.982L173.604 126.012V129H172.273V126.012ZM176.527 123.012H177.781V126.926C177.781 127.344 177.863 127.654 178.027 127.857C178.191 128.057 178.467 128.156 178.854 128.156C179.041 128.156 179.211 128.141 179.363 128.109C179.516 128.078 179.648 128.041 179.762 127.998C179.891 127.951 180.006 127.896 180.107 127.834V123.012H181.367V128.033L181.889 128.631V129H180.758L180.295 128.537H180.072C180.041 128.561 179.982 128.604 179.896 128.666C179.811 128.729 179.699 128.795 179.562 128.865C179.43 128.932 179.275 128.99 179.1 129.041C178.924 129.092 178.732 129.117 178.525 129.117C178.197 129.117 177.908 129.068 177.658 128.971C177.408 128.873 177.199 128.734 177.031 128.555C176.863 128.371 176.736 128.152 176.65 127.898C176.568 127.641 176.527 127.354 176.527 127.037V123.012ZM183.09 120.562H184.285V125.021L184.227 125.871L184.537 125.502L186.418 123.012H187.836L185.932 125.426L185.445 125.889L185.826 126.234L187.941 129H186.518L184.502 126.293L184.227 125.941L184.285 127.008V129H183.09V120.562ZM192.359 121.043H193.689V127.898C193.854 127.898 194.023 127.896 194.199 127.893C194.379 127.889 194.557 127.885 194.732 127.881C194.912 127.877 195.086 127.873 195.254 127.869C195.426 127.861 195.588 127.854 195.74 127.846C196.1 127.83 196.451 127.814 196.795 127.799C196.795 127.865 196.785 127.965 196.766 128.098C196.75 128.23 196.73 128.365 196.707 128.502C196.684 128.635 196.66 128.752 196.637 128.854C196.617 128.951 196.602 129 196.59 129H192.359V121.043ZM197.633 127.289C197.633 126.965 197.68 126.689 197.773 126.463C197.867 126.236 198.004 126.051 198.184 125.906C198.367 125.762 198.588 125.654 198.846 125.584C199.107 125.51 199.406 125.463 199.742 125.443L201.049 125.373V124.904C201.049 124.693 201.029 124.52 200.99 124.383C200.955 124.246 200.895 124.137 200.809 124.055C200.723 123.973 200.607 123.916 200.463 123.885C200.322 123.85 200.146 123.832 199.936 123.832C199.725 123.832 199.523 123.855 199.332 123.902C199.145 123.949 198.98 124 198.84 124.055C198.672 124.121 198.518 124.195 198.377 124.277C198.291 124.156 198.223 124.041 198.172 123.932C198.121 123.818 198.082 123.717 198.055 123.627C198.02 123.525 197.996 123.428 197.984 123.334C198.172 123.24 198.373 123.158 198.588 123.088C198.775 123.025 198.99 122.969 199.232 122.918C199.479 122.867 199.736 122.842 200.006 122.842C200.451 122.842 200.82 122.881 201.113 122.959C201.406 123.037 201.639 123.156 201.811 123.316C201.986 123.473 202.107 123.672 202.174 123.914C202.244 124.152 202.279 124.436 202.279 124.764V128.033L202.771 128.631V129H201.688L201.236 128.479H201.025C201.006 128.498 200.953 128.543 200.867 128.613C200.785 128.68 200.678 128.752 200.545 128.83C200.416 128.904 200.268 128.971 200.1 129.029C199.936 129.088 199.76 129.117 199.572 129.117C199.279 129.117 199.014 129.074 198.775 128.988C198.537 128.898 198.332 128.773 198.16 128.613C197.992 128.449 197.861 128.256 197.768 128.033C197.678 127.807 197.633 127.559 197.633 127.289ZM198.91 127.184C198.91 127.363 198.936 127.514 198.986 127.635C199.037 127.752 199.107 127.846 199.197 127.916C199.291 127.986 199.402 128.035 199.531 128.062C199.664 128.09 199.811 128.104 199.971 128.104C200.119 128.104 200.258 128.086 200.387 128.051C200.52 128.012 200.635 127.969 200.732 127.922C200.846 127.871 200.951 127.811 201.049 127.74V126.164L199.871 126.24C199.688 126.252 199.533 126.283 199.408 126.334C199.287 126.385 199.189 126.451 199.115 126.533C199.041 126.615 198.988 126.713 198.957 126.826C198.926 126.936 198.91 127.055 198.91 127.184ZM205.104 131.373H203.85V123.791L203.387 123.316V122.947H204.459L204.922 123.352L205.139 123.363C205.162 123.34 205.213 123.301 205.291 123.246C205.373 123.188 205.48 123.129 205.613 123.07C205.746 123.008 205.904 122.955 206.088 122.912C206.271 122.865 206.477 122.842 206.703 122.842C206.992 122.842 207.273 122.889 207.547 122.982C207.824 123.076 208.068 123.238 208.279 123.469C208.494 123.699 208.666 124.012 208.795 124.406C208.924 124.797 208.988 125.291 208.988 125.889C208.988 126.404 208.908 126.863 208.748 127.266C208.592 127.668 208.381 128.006 208.115 128.279C207.85 128.553 207.539 128.762 207.184 128.906C206.832 129.047 206.461 129.117 206.07 129.117C205.969 129.117 205.859 129.113 205.742 129.105C205.629 129.098 205.525 129.088 205.432 129.076C205.318 129.064 205.209 129.051 205.104 129.035V131.373ZM205.104 128.133C205.17 128.152 205.26 128.17 205.373 128.186C205.486 128.201 205.611 128.209 205.748 128.209C206.041 128.209 206.307 128.154 206.545 128.045C206.783 127.932 206.984 127.775 207.148 127.576C207.316 127.373 207.445 127.129 207.535 126.844C207.629 126.559 207.676 126.24 207.676 125.889C207.676 125.455 207.637 125.104 207.559 124.834C207.484 124.561 207.375 124.348 207.23 124.195C207.09 124.039 206.918 123.934 206.715 123.879C206.512 123.824 206.285 123.797 206.035 123.797C205.926 123.797 205.816 123.814 205.707 123.85C205.598 123.881 205.498 123.918 205.408 123.961C205.303 124.008 205.201 124.061 205.104 124.119V128.133ZM209.902 126.006C209.902 125.49 209.971 125.035 210.107 124.641C210.248 124.246 210.443 123.916 210.693 123.65C210.947 123.385 211.248 123.184 211.596 123.047C211.947 122.91 212.334 122.842 212.756 122.842C213.189 122.842 213.58 122.906 213.928 123.035C214.275 123.16 214.57 123.352 214.812 123.609C215.055 123.867 215.24 124.189 215.369 124.576C215.498 124.959 215.562 125.408 215.562 125.924C215.562 126.439 215.496 126.896 215.363 127.295C215.234 127.693 215.047 128.027 214.801 128.297C214.559 128.566 214.264 128.771 213.916 128.912C213.572 129.049 213.186 129.117 212.756 129.117C212.311 129.117 211.91 129.053 211.555 128.924C211.203 128.791 210.904 128.596 210.658 128.338C210.416 128.076 210.229 127.752 210.096 127.365C209.967 126.975 209.902 126.521 209.902 126.006ZM212.756 128.15C213.014 128.15 213.236 128.096 213.424 127.986C213.615 127.873 213.771 127.719 213.893 127.523C214.014 127.324 214.104 127.09 214.162 126.82C214.221 126.547 214.25 126.248 214.25 125.924C214.25 125.225 214.131 124.691 213.893 124.324C213.654 123.957 213.275 123.773 212.756 123.773C212.494 123.773 212.266 123.83 212.07 123.943C211.879 124.053 211.719 124.207 211.59 124.406C211.465 124.605 211.371 124.842 211.309 125.115C211.246 125.389 211.215 125.686 211.215 126.006C211.215 126.713 211.34 127.248 211.59 127.611C211.844 127.971 212.232 128.15 212.756 128.15ZM217.555 122.947L218.158 123.58C218.201 123.482 218.256 123.391 218.322 123.305C218.393 123.215 218.473 123.137 218.562 123.07C218.656 123.004 218.76 122.951 218.873 122.912C218.99 122.873 219.117 122.854 219.254 122.854C219.367 122.854 219.477 122.863 219.582 122.883C219.688 122.898 219.803 122.928 219.928 122.971C219.932 122.979 219.936 123.01 219.939 123.064C219.947 123.119 219.951 123.188 219.951 123.27C219.951 123.332 219.947 123.406 219.939 123.492C219.932 123.574 219.918 123.66 219.898 123.75C219.883 123.836 219.857 123.922 219.822 124.008C219.791 124.094 219.75 124.168 219.699 124.23L219.588 124.26C219.51 124.221 219.422 124.188 219.324 124.16C219.23 124.133 219.133 124.119 219.031 124.119C218.875 124.119 218.744 124.131 218.639 124.154C218.533 124.174 218.447 124.195 218.381 124.219C218.303 124.246 218.24 124.277 218.193 124.312V129H216.939V124.084L216.477 123.609V122.947H217.555ZM220.918 120.562H222.113V125.021L222.055 125.871L222.365 125.502L224.246 123.012H225.664L223.76 125.426L223.273 125.889L223.654 126.234L225.77 129H224.346L222.33 126.293L222.055 125.941L222.113 127.008V129H220.918V120.562ZM226.273 127.289C226.273 126.965 226.32 126.689 226.414 126.463C226.508 126.236 226.645 126.051 226.824 125.906C227.008 125.762 227.229 125.654 227.486 125.584C227.748 125.51 228.047 125.463 228.383 125.443L229.689 125.373V124.904C229.689 124.693 229.67 124.52 229.631 124.383C229.596 124.246 229.535 124.137 229.449 124.055C229.363 123.973 229.248 123.916 229.104 123.885C228.963 123.85 228.787 123.832 228.576 123.832C228.365 123.832 228.164 123.855 227.973 123.902C227.785 123.949 227.621 124 227.48 124.055C227.312 124.121 227.158 124.195 227.018 124.277C226.932 124.156 226.863 124.041 226.812 123.932C226.762 123.818 226.723 123.717 226.695 123.627C226.66 123.525 226.637 123.428 226.625 123.334C226.812 123.24 227.014 123.158 227.229 123.088C227.416 123.025 227.631 122.969 227.873 122.918C228.119 122.867 228.377 122.842 228.646 122.842C229.092 122.842 229.461 122.881 229.754 122.959C230.047 123.037 230.279 123.156 230.451 123.316C230.627 123.473 230.748 123.672 230.814 123.914C230.885 124.152 230.92 124.436 230.92 124.764V128.033L231.412 128.631V129H230.328L229.877 128.479H229.666C229.646 128.498 229.594 128.543 229.508 128.613C229.426 128.68 229.318 128.752 229.186 128.83C229.057 128.904 228.908 128.971 228.74 129.029C228.576 129.088 228.4 129.117 228.213 129.117C227.92 129.117 227.654 129.074 227.416 128.988C227.178 128.898 226.973 128.773 226.801 128.613C226.633 128.449 226.502 128.256 226.408 128.033C226.318 127.807 226.273 127.559 226.273 127.289ZM227.551 127.184C227.551 127.363 227.576 127.514 227.627 127.635C227.678 127.752 227.748 127.846 227.838 127.916C227.932 127.986 228.043 128.035 228.172 128.062C228.305 128.09 228.451 128.104 228.611 128.104C228.76 128.104 228.898 128.086 229.027 128.051C229.16 128.012 229.275 127.969 229.373 127.922C229.486 127.871 229.592 127.811 229.689 127.74V126.164L228.512 126.24C228.328 126.252 228.174 126.283 228.049 126.334C227.928 126.385 227.83 126.451 227.756 126.533C227.682 126.615 227.629 126.713 227.598 126.826C227.566 126.936 227.551 127.055 227.551 127.184ZM232.602 124.084L232.139 123.609V122.947H233.217L233.721 123.404L233.891 123.369C233.918 123.346 233.98 123.305 234.078 123.246C234.18 123.188 234.303 123.129 234.447 123.07C234.596 123.012 234.764 122.961 234.951 122.918C235.139 122.871 235.336 122.848 235.543 122.848C235.871 122.848 236.162 122.896 236.416 122.994C236.674 123.092 236.891 123.232 237.066 123.416C237.242 123.596 237.375 123.812 237.465 124.066C237.555 124.32 237.6 124.605 237.6 124.922V129H236.34V125.045C236.34 124.619 236.25 124.307 236.07 124.107C235.895 123.904 235.613 123.803 235.227 123.803C235.035 123.803 234.857 123.82 234.693 123.855C234.529 123.887 234.385 123.924 234.26 123.967C234.115 124.014 233.98 124.068 233.855 124.131V129H232.602V124.084ZM239.012 128.191C239.012 128.082 239.033 127.979 239.076 127.881C239.123 127.783 239.186 127.697 239.264 127.623C239.342 127.549 239.434 127.492 239.539 127.453C239.645 127.41 239.758 127.389 239.879 127.389C240 127.389 240.113 127.41 240.219 127.453C240.324 127.492 240.416 127.549 240.494 127.623C240.572 127.697 240.633 127.783 240.676 127.881C240.723 127.979 240.746 128.082 240.746 128.191C240.746 128.305 240.723 128.412 240.676 128.514C240.633 128.611 240.572 128.697 240.494 128.771C240.416 128.842 240.324 128.898 240.219 128.941C240.113 128.984 240 129.006 239.879 129.006C239.758 129.006 239.645 128.984 239.539 128.941C239.434 128.898 239.342 128.842 239.264 128.771C239.186 128.697 239.123 128.611 239.076 128.514C239.033 128.412 239.012 128.305 239.012 128.191ZM239.475 126.598C239.42 125.941 239.371 125.277 239.328 124.605C239.309 124.32 239.291 124.02 239.275 123.703C239.26 123.387 239.244 123.066 239.229 122.742C239.217 122.418 239.207 122.098 239.199 121.781C239.191 121.461 239.188 121.156 239.188 120.867C239.254 120.859 239.324 120.852 239.398 120.844C239.465 120.836 239.537 120.83 239.615 120.826C239.693 120.818 239.775 120.814 239.861 120.814C239.951 120.814 240.037 120.818 240.119 120.826C240.205 120.83 240.281 120.836 240.348 120.844C240.422 120.852 240.494 120.859 240.564 120.867C240.564 121.18 240.561 121.502 240.553 121.834C240.545 122.162 240.535 122.49 240.523 122.818C240.512 123.146 240.498 123.467 240.482 123.779C240.467 124.092 240.451 124.389 240.436 124.67C240.396 125.33 240.354 125.975 240.307 126.604C240.283 126.615 240.24 126.631 240.178 126.65C240.119 126.666 240.025 126.674 239.896 126.674C239.83 126.674 239.756 126.666 239.674 126.65C239.596 126.635 239.529 126.617 239.475 126.598Z" fill="white"/>
<defs>
<linearGradient id="paint0_linear_60_2" x1="175.464" y1="-107" x2="-53.8269" y2="-9.06639" gradientUnits="userSpaceOnUse">
<stop stop-color="white"/>
<stop offset="1" stop-color="#D5D5D5"/>
</linearGradient>
<linearGradient id="paint1_linear_60_2" x1="74.5" y1="12" x2="74.5" y2="137" gradientUnits="userSpaceOnUse">
<stop stop-color="#F64847"/>
<stop offset="1" stop-color="#E5080B"/>
</linearGradient>
<linearGradient id="paint2_linear_60_2" x1="74.5" y1="34.1001" x2="74.5" y2="114.9" gradientUnits="userSpaceOnUse">
<stop stop-color="white"/>
<stop offset="1" stop-color="#FFD5D5"/>
</linearGradient>
<linearGradient id="paint3_linear_60_2" x1="61.37" y1="63.3899" x2="61.37" y2="71.4699" gradientUnits="userSpaceOnUse">
<stop stop-color="white"/>
<stop offset="1" stop-color="#FFD5D5"/>
</linearGradient>
<linearGradient id="paint4_linear_60_2" x1="61.37" y1="63.3899" x2="61.37" y2="71.4699" gradientUnits="userSpaceOnUse">
<stop stop-color="white"/>
<stop offset="1" stop-color="#FFD5D5"/>
</linearGradient>
<linearGradient id="paint5_linear_60_2" x1="87.63" y1="63.3899" x2="87.63" y2="71.4699" gradientUnits="userSpaceOnUse">
<stop stop-color="white"/>
<stop offset="1" stop-color="#FFD5D5"/>
</linearGradient>
<linearGradient id="paint6_linear_60_2" x1="87.63" y1="63.3899" x2="87.63" y2="71.4699" gradientUnits="userSpaceOnUse">
<stop stop-color="white"/>
<stop offset="1" stop-color="#FFD5D5"/>
</linearGradient>
<linearGradient id="paint7_linear_60_2" x1="74.5" y1="91.165" x2="74.5" y2="84.6" gradientUnits="userSpaceOnUse">
<stop stop-color="white"/>
<stop offset="1" stop-color="#FFD5D5"/>
</linearGradient>
<linearGradient id="paint8_linear_60_2" x1="219" y1="102.5" x2="189.5" y2="145" gradientUnits="userSpaceOnUse">
<stop stop-color="#F64847"/>
<stop offset="1" stop-color="#E5080B"/>
</linearGradient>
<linearGradient id="paint9_linear_60_2" x1="219" y1="102.5" x2="189.5" y2="145" gradientUnits="userSpaceOnUse">
<stop stop-color="#F64847"/>
<stop offset="1" stop-color="#E5080B"/>
</linearGradient>
<clipPath id="clip0_60_2">
<rect width="101" height="101" fill="white" transform="translate(24 24)"/>
</clipPath>
</defs>
</svg>
