<svg width="300" height="150" viewBox="0 0 300 150" fill="none" xmlns="http://www.w3.org/2000/svg">
<path d="M225 0C226.64 0 228.269 0.0525165 229.883 0.15625C234.145 0.000563357 239.105 0 244.918 0H258C277.799 0 287.699 -0.000299376 293.85 6.15039C300 12.3011 300 22.201 300 42V108C300 127.799 300 137.699 293.85 143.85C287.699 150 277.799 150 258 150H244.918C239.105 150 234.145 149.998 229.883 149.843C228.269 149.947 226.64 150 225 150H75C33.5786 150 0 116.421 0 75C6.04075e-07 33.5786 33.5786 1.61067e-06 75 0H225Z" fill="url(#paint0_linear_60_24)"/>
<circle cx="74.5" cy="74.5" r="62.5" fill="url(#paint1_linear_60_24)"/>
<g clip-path="url(#clip0_60_24)">
<path d="M74.5 114.9C96.8123 114.9 114.9 96.8124 114.9 74.5001C114.9 52.1878 96.8123 34.1001 74.5 34.1001C52.1877 34.1001 34.1 52.1878 34.1 74.5001C34.1 96.8124 52.1877 114.9 74.5 114.9Z" stroke="url(#paint2_linear_60_24)" stroke-width="8" stroke-linecap="round" stroke-linejoin="round"/>
<path d="M61.3701 61.8899C64.4297 61.8899 66.9101 64.3703 66.9101 67.4299C66.9101 70.4896 64.4297 72.9699 61.3701 72.97C58.3104 72.97 55.83 70.4896 55.83 67.4299C55.83 64.3703 58.3104 61.8899 61.3701 61.8899Z" fill="url(#paint3_linear_60_24)" stroke="url(#paint4_linear_60_24)" stroke-width="3"/>
<path d="M87.63 61.8899C90.6896 61.8899 93.17 64.3703 93.17 67.4299C93.17 70.4896 90.6896 72.9699 87.63 72.97C84.5704 72.97 82.09 70.4896 82.09 67.4299C82.09 64.3703 84.5703 61.8899 87.63 61.8899Z" fill="url(#paint5_linear_60_24)" stroke="url(#paint6_linear_60_24)" stroke-width="3"/>
<path d="M57.3301 87.6001C68.7767 96.3534 80.2234 96.3534 91.6701 87.6001" stroke="url(#paint7_linear_60_24)" stroke-width="8" stroke-linecap="round" stroke-linejoin="round"/>
</g>
<path d="M155.016 46H151.391C151.307 46 151.266 45.9479 151.266 45.8438L151.328 23.8906C151.328 23.7865 151.37 23.7344 151.453 23.7344H155.047C155.13 23.7344 155.172 23.7865 155.172 23.8906V31.4688L160.188 23.8594C160.271 23.776 160.349 23.7344 160.422 23.7344H164.094C164.188 23.7344 164.208 23.776 164.156 23.8594L158.625 32.6875L164.828 45.875C164.88 45.9583 164.828 46 164.672 46H160.766C160.661 46 160.599 45.9583 160.578 45.875L156.25 36.4688L155.141 38.2188V45.8438C155.141 45.9479 155.099 46 155.016 46ZM171.531 46.3125C170.396 46.3125 169.349 46.0208 168.391 45.4375C167.443 44.8542 166.677 44.0781 166.094 43.1094C165.521 42.1302 165.234 41.0573 165.234 39.8906L165.266 29.75C165.266 28.5625 165.552 27.4948 166.125 26.5469C166.688 25.5885 167.448 24.8229 168.406 24.25C169.365 23.6667 170.406 23.375 171.531 23.375C172.698 23.375 173.745 23.6615 174.672 24.2344C175.609 24.8073 176.359 25.5781 176.922 26.5469C177.495 27.5052 177.781 28.5729 177.781 29.75L177.812 39.8906C177.812 41.0573 177.531 42.125 176.969 43.0938C176.396 44.0729 175.635 44.8542 174.688 45.4375C173.74 46.0208 172.688 46.3125 171.531 46.3125ZM171.531 42.4531C172.177 42.4531 172.74 42.1927 173.219 41.6719C173.698 41.1406 173.938 40.5469 173.938 39.8906L173.906 29.75C173.906 29.0417 173.682 28.4427 173.234 27.9531C172.786 27.4635 172.219 27.2188 171.531 27.2188C170.875 27.2188 170.312 27.4583 169.844 27.9375C169.375 28.4167 169.141 29.0208 169.141 29.75V39.8906C169.141 40.5885 169.375 41.1927 169.844 41.7031C170.312 42.2031 170.875 42.4531 171.531 42.4531ZM183.719 46H180.516C180.349 46 180.266 45.9271 180.266 45.7812L180.234 23.9844C180.234 23.8177 180.318 23.7344 180.484 23.7344H183.375L188.781 36.3438L188.625 23.9844C188.625 23.8177 188.719 23.7344 188.906 23.7344H192.078C192.203 23.7344 192.266 23.8177 192.266 23.9844L192.297 45.8125C192.297 45.9375 192.245 46 192.141 46H189.328L183.781 34.2188L184.016 45.75C184.016 45.9167 183.917 46 183.719 46ZM201.906 46H198.297C198.203 46 198.156 45.9479 198.156 45.8438V27.5938H194C193.896 27.5938 193.844 27.5417 193.844 27.4375L193.875 23.8594C193.875 23.776 193.917 23.7344 194 23.7344H206.156C206.271 23.7344 206.328 23.776 206.328 23.8594V27.4375C206.328 27.5417 206.286 27.5938 206.203 27.5938H202L202.031 45.8438C202.031 45.9479 201.99 46 201.906 46ZM218.359 46H208.016C207.932 46 207.891 45.9479 207.891 45.8438L207.922 23.8594C207.922 23.776 207.964 23.7344 208.047 23.7344H218.328C218.411 23.7344 218.453 23.7865 218.453 23.8906V27.4688C218.453 27.5521 218.411 27.5938 218.328 27.5938H211.766V32.5938H218.328C218.411 32.5938 218.453 32.6354 218.453 32.7188L218.484 36.3438C218.484 36.4271 218.443 36.4688 218.359 36.4688H211.766V42.0625H218.359C218.443 42.0625 218.484 42.1146 218.484 42.2188V45.875C218.484 45.9583 218.443 46 218.359 46ZM224.812 46H221.609C221.443 46 221.359 45.9271 221.359 45.7812L221.328 23.9844C221.328 23.8177 221.411 23.7344 221.578 23.7344H224.469L229.875 36.3438L229.719 23.9844C229.719 23.8177 229.812 23.7344 230 23.7344H233.172C233.297 23.7344 233.359 23.8177 233.359 23.9844L233.391 45.8125C233.391 45.9375 233.339 46 233.234 46H230.422L224.875 34.2188L225.109 45.75C225.109 45.9167 225.01 46 224.812 46ZM161.734 75H151.391C151.307 75 151.266 74.9479 151.266 74.8438L151.297 52.8906C151.297 52.7865 151.349 52.7344 151.453 52.7344H155.016C155.12 52.7344 155.172 52.7865 155.172 52.8906L155.141 71.0625H161.734C161.839 71.0625 161.891 71.1146 161.891 71.2188V74.8438C161.891 74.9479 161.839 75 161.734 75ZM162.906 74.8438L166.875 52.8594C166.896 52.776 166.948 52.7344 167.031 52.7344H171.672C171.755 52.7344 171.807 52.776 171.828 52.8594L175.641 74.8438C175.651 74.9479 175.609 75 175.516 75H171.969C171.865 75 171.807 74.9479 171.797 74.8438L171.453 72.5H167.094L166.75 74.8438C166.74 74.9479 166.688 75 166.594 75H163.031C162.948 75 162.906 74.9479 162.906 74.8438ZM169.5 60.0938L169.312 58.9062L169.172 60.0938L167.734 69.0781H170.812L169.5 60.0938ZM182.062 75H178.391C178.318 75 178.281 74.9583 178.281 74.875L178.312 65.7812L174.031 52.8594C174.01 52.776 174.042 52.7344 174.125 52.7344H177.688C177.792 52.7344 177.854 52.776 177.875 52.8594L180.234 61.4688L182.641 52.8594C182.661 52.776 182.714 52.7344 182.797 52.7344H186.391C186.474 52.7344 186.505 52.776 186.484 52.8594L182.156 65.6562L182.188 74.875C182.188 74.9583 182.146 75 182.062 75ZM184.906 74.8438L188.875 52.8594C188.896 52.776 188.948 52.7344 189.031 52.7344H193.672C193.755 52.7344 193.807 52.776 193.828 52.8594L197.641 74.8438C197.651 74.9479 197.609 75 197.516 75H193.969C193.865 75 193.807 74.9479 193.797 74.8438L193.453 72.5H189.094L188.75 74.8438C188.74 74.9479 188.688 75 188.594 75H185.031C184.948 75 184.906 74.9479 184.906 74.8438ZM191.5 60.0938L191.312 58.9062L191.172 60.0938L189.734 69.0781H192.812L191.5 60.0938ZM203.391 75H199.766C199.682 75 199.641 74.9479 199.641 74.8438L199.703 52.8906C199.703 52.7865 199.745 52.7344 199.828 52.7344H203.422C203.505 52.7344 203.547 52.7865 203.547 52.8906V60.4688L208.562 52.8594C208.646 52.776 208.724 52.7344 208.797 52.7344H212.469C212.562 52.7344 212.583 52.776 212.531 52.8594L207 61.6875L213.203 74.875C213.255 74.9583 213.203 75 213.047 75H209.141C209.036 75 208.974 74.9583 208.953 74.875L204.625 65.4688L203.516 67.2188V74.8438C203.516 74.9479 203.474 75 203.391 75ZM221.875 74.8438L225.844 52.8594C225.865 52.776 225.917 52.7344 226 52.7344H230.641C230.724 52.7344 230.776 52.776 230.797 52.8594L234.609 74.8438C234.62 74.9479 234.578 75 234.484 75H230.938C230.833 75 230.776 74.9479 230.766 74.8438L230.422 72.5H226.062L225.719 74.8438C225.708 74.9479 225.656 75 225.562 75H222C221.917 75 221.875 74.9479 221.875 74.8438ZM228.469 60.0938L228.281 58.9062L228.141 60.0938L226.703 69.0781H229.781L228.469 60.0938ZM240.094 75H236.891C236.724 75 236.641 74.9271 236.641 74.7812L236.609 52.9844C236.609 52.8177 236.693 52.7344 236.859 52.7344H239.75L245.156 65.3438L245 52.9844C245 52.8177 245.094 52.7344 245.281 52.7344H248.453C248.578 52.7344 248.641 52.8177 248.641 52.9844L248.672 74.8125C248.672 74.9375 248.62 75 248.516 75H245.703L240.156 63.2188L240.391 74.75C240.391 74.9167 240.292 75 240.094 75ZM250.375 74.8438L254.344 52.8594C254.365 52.776 254.417 52.7344 254.5 52.7344H259.141C259.224 52.7344 259.276 52.776 259.297 52.8594L263.109 74.8438C263.12 74.9479 263.078 75 262.984 75H259.438C259.333 75 259.276 74.9479 259.266 74.8438L258.922 72.5H254.562L254.219 74.8438C254.208 74.9479 254.156 75 254.062 75H250.5C250.417 75 250.375 74.9479 250.375 74.8438ZM256.969 60.0938L256.781 58.9062L256.641 60.0938L255.203 69.0781H258.281L256.969 60.0938ZM268.859 75H265.234C265.151 75 265.109 74.9479 265.109 74.8438L265.172 52.8906C265.172 52.7865 265.214 52.7344 265.297 52.7344H268.891C268.974 52.7344 269.016 52.7865 269.016 52.8906V60.4688L274.031 52.8594C274.115 52.776 274.193 52.7344 274.266 52.7344H277.938C278.031 52.7344 278.052 52.776 278 52.8594L272.469 61.6875L278.672 74.875C278.724 74.9583 278.672 75 278.516 75H274.609C274.505 75 274.443 74.9583 274.422 74.875L270.094 65.4688L268.984 67.2188V74.8438C268.984 74.9479 268.943 75 268.859 75Z" fill="black"/>
<rect x="150" y="112" width="26" height="26" rx="13" fill="url(#paint8_linear_60_24)"/>
<rect x="180.5" y="112.5" width="89" height="25" rx="12.5" stroke="url(#paint9_linear_60_24)"/>
<path d="M194.121 122.027C193.828 122.031 193.562 122.035 193.324 122.039C193.09 122.043 192.889 122.049 192.721 122.057C192.525 122.064 192.352 122.072 192.199 122.08C192.191 122.033 192.186 121.986 192.182 121.939C192.17 121.857 192.164 121.756 192.164 121.635C192.164 121.564 192.168 121.48 192.176 121.383C192.188 121.281 192.207 121.168 192.234 121.043H197.449C197.453 121.082 197.457 121.123 197.461 121.166C197.465 121.201 197.469 121.242 197.473 121.289C197.477 121.332 197.479 121.375 197.479 121.418C197.479 121.496 197.471 121.598 197.455 121.723C197.443 121.848 197.42 121.965 197.385 122.074C197.354 122.07 197.271 122.066 197.139 122.062C197.01 122.055 196.854 122.049 196.67 122.045C196.486 122.041 196.287 122.037 196.072 122.033C195.857 122.029 195.648 122.027 195.445 122.027V129H194.121V122.027ZM199.148 121.998C199.039 121.998 198.936 121.979 198.838 121.939C198.744 121.9 198.66 121.848 198.586 121.781C198.516 121.715 198.459 121.639 198.416 121.553C198.373 121.463 198.352 121.367 198.352 121.266C198.352 121.16 198.373 121.062 198.416 120.973C198.459 120.883 198.516 120.805 198.586 120.738C198.66 120.672 198.744 120.621 198.838 120.586C198.936 120.547 199.039 120.527 199.148 120.527C199.258 120.527 199.361 120.547 199.459 120.586C199.557 120.621 199.641 120.672 199.711 120.738C199.785 120.805 199.844 120.883 199.887 120.973C199.93 121.062 199.951 121.16 199.951 121.266C199.951 121.367 199.93 121.463 199.887 121.553C199.844 121.639 199.785 121.715 199.711 121.781C199.641 121.848 199.557 121.9 199.459 121.939C199.361 121.979 199.258 121.998 199.148 121.998ZM198.475 123.012H199.693V128.016L200.039 128.262V129H199.705L199.693 128.988V129C199.307 129 199.006 128.922 198.791 128.766C198.58 128.609 198.475 128.352 198.475 127.992V123.012ZM201.17 126.111C201.17 125.553 201.248 125.068 201.404 124.658C201.561 124.248 201.771 123.908 202.037 123.639C202.307 123.369 202.617 123.17 202.969 123.041C203.32 122.908 203.693 122.842 204.088 122.842C204.236 122.842 204.369 122.85 204.486 122.865C204.604 122.877 204.703 122.893 204.785 122.912C204.883 122.932 204.969 122.955 205.043 122.982V120.568H206.291V128.033L206.807 128.631V129H205.635L205.23 128.537H205.031C205.012 128.557 204.971 128.598 204.908 128.66C204.85 128.723 204.764 128.787 204.65 128.854C204.541 128.92 204.404 128.98 204.24 129.035C204.08 129.09 203.891 129.117 203.672 129.117C203.383 129.117 203.09 129.059 202.793 128.941C202.496 128.824 202.227 128.643 201.984 128.396C201.746 128.15 201.551 127.84 201.398 127.465C201.246 127.086 201.17 126.635 201.17 126.111ZM202.482 126.111C202.482 126.475 202.52 126.785 202.594 127.043C202.672 127.301 202.781 127.514 202.922 127.682C203.062 127.846 203.234 127.967 203.438 128.045C203.641 128.119 203.869 128.156 204.123 128.156C204.221 128.156 204.324 128.141 204.434 128.109C204.543 128.078 204.643 128.041 204.732 127.998C204.838 127.955 204.941 127.902 205.043 127.84V123.879C204.992 123.848 204.916 123.816 204.814 123.785C204.717 123.754 204.58 123.738 204.404 123.738C203.791 123.738 203.316 123.941 202.98 124.348C202.648 124.75 202.482 125.338 202.482 126.111ZM207.469 127.289C207.469 126.965 207.516 126.689 207.609 126.463C207.703 126.236 207.84 126.051 208.02 125.906C208.203 125.762 208.424 125.654 208.682 125.584C208.943 125.51 209.242 125.463 209.578 125.443L210.885 125.373V124.904C210.885 124.693 210.865 124.52 210.826 124.383C210.791 124.246 210.73 124.137 210.645 124.055C210.559 123.973 210.443 123.916 210.299 123.885C210.158 123.85 209.982 123.832 209.771 123.832C209.561 123.832 209.359 123.855 209.168 123.902C208.98 123.949 208.816 124 208.676 124.055C208.508 124.121 208.354 124.195 208.213 124.277C208.127 124.156 208.059 124.041 208.008 123.932C207.957 123.818 207.918 123.717 207.891 123.627C207.855 123.525 207.832 123.428 207.82 123.334C208.008 123.24 208.209 123.158 208.424 123.088C208.611 123.025 208.826 122.969 209.068 122.918C209.314 122.867 209.572 122.842 209.842 122.842C210.287 122.842 210.656 122.881 210.949 122.959C211.242 123.037 211.475 123.156 211.646 123.316C211.822 123.473 211.943 123.672 212.01 123.914C212.08 124.152 212.115 124.436 212.115 124.764V128.033L212.607 128.631V129H211.523L211.072 128.479H210.861C210.842 128.498 210.789 128.543 210.703 128.613C210.621 128.68 210.514 128.752 210.381 128.83C210.252 128.904 210.104 128.971 209.936 129.029C209.771 129.088 209.596 129.117 209.408 129.117C209.115 129.117 208.85 129.074 208.611 128.988C208.373 128.898 208.168 128.773 207.996 128.613C207.828 128.449 207.697 128.256 207.604 128.033C207.514 127.807 207.469 127.559 207.469 127.289ZM208.746 127.184C208.746 127.363 208.771 127.514 208.822 127.635C208.873 127.752 208.943 127.846 209.033 127.916C209.127 127.986 209.238 128.035 209.367 128.062C209.5 128.09 209.646 128.104 209.807 128.104C209.955 128.104 210.094 128.086 210.223 128.051C210.355 128.012 210.471 127.969 210.568 127.922C210.682 127.871 210.787 127.811 210.885 127.74V126.164L209.707 126.24C209.523 126.252 209.369 126.283 209.244 126.334C209.123 126.385 209.025 126.451 208.951 126.533C208.877 126.615 208.824 126.713 208.793 126.826C208.762 126.936 208.746 127.055 208.746 127.184ZM213.703 120.562H214.898V125.021L214.84 125.871L215.15 125.502L217.031 123.012H218.449L216.545 125.426L216.059 125.889L216.439 126.234L218.555 129H217.131L215.115 126.293L214.84 125.941L214.898 127.008V129H213.703V120.562ZM222.674 128.713C222.682 128.623 222.695 128.521 222.715 128.408C222.734 128.314 222.76 128.203 222.791 128.074C222.826 127.941 222.877 127.799 222.943 127.646C223.154 127.717 223.369 127.779 223.588 127.834C223.775 127.881 223.98 127.924 224.203 127.963C224.426 128.002 224.639 128.021 224.842 128.021C225.15 128.021 225.408 127.998 225.615 127.951C225.826 127.904 225.994 127.836 226.119 127.746C226.248 127.652 226.34 127.537 226.395 127.4C226.449 127.26 226.477 127.098 226.477 126.914C226.477 126.707 226.447 126.531 226.389 126.387C226.334 126.242 226.248 126.117 226.131 126.012C226.018 125.906 225.871 125.816 225.691 125.742C225.512 125.668 225.299 125.596 225.053 125.525C224.623 125.408 224.26 125.281 223.963 125.145C223.666 125.004 223.424 124.844 223.236 124.664C223.053 124.484 222.92 124.281 222.838 124.055C222.756 123.824 222.715 123.562 222.715 123.27C222.715 122.848 222.779 122.486 222.908 122.186C223.041 121.885 223.227 121.639 223.465 121.447C223.707 121.256 223.998 121.115 224.338 121.025C224.682 120.936 225.064 120.891 225.486 120.891C225.811 120.891 226.094 120.916 226.336 120.967C226.582 121.018 226.789 121.072 226.957 121.131C227.152 121.201 227.322 121.281 227.467 121.371C227.455 121.461 227.432 121.559 227.396 121.664C227.365 121.754 227.322 121.859 227.268 121.98C227.213 122.102 227.137 122.232 227.039 122.373C226.922 122.295 226.785 122.225 226.629 122.162C226.492 122.107 226.326 122.059 226.131 122.016C225.939 121.969 225.717 121.945 225.463 121.945C225.186 121.945 224.951 121.967 224.76 122.01C224.572 122.053 224.418 122.121 224.297 122.215C224.176 122.305 224.088 122.42 224.033 122.561C223.982 122.697 223.957 122.861 223.957 123.053C223.957 123.268 223.984 123.447 224.039 123.592C224.094 123.732 224.182 123.854 224.303 123.955C224.424 124.053 224.58 124.139 224.771 124.213C224.967 124.287 225.201 124.363 225.475 124.441C225.885 124.555 226.234 124.676 226.523 124.805C226.812 124.934 227.047 125.084 227.227 125.256C227.41 125.428 227.543 125.633 227.625 125.871C227.711 126.105 227.754 126.389 227.754 126.721C227.754 127.131 227.701 127.488 227.596 127.793C227.49 128.094 227.322 128.346 227.092 128.549C226.861 128.752 226.564 128.902 226.201 129C225.838 129.102 225.4 129.152 224.889 129.152C224.584 129.152 224.297 129.129 224.027 129.082C223.758 129.039 223.523 128.99 223.324 128.936C223.086 128.869 222.869 128.795 222.674 128.713ZM228.838 126.064C228.838 125.502 228.906 125.018 229.043 124.611C229.18 124.205 229.371 123.871 229.617 123.609C229.863 123.348 230.156 123.156 230.496 123.035C230.84 122.91 231.217 122.848 231.627 122.848C232.006 122.848 232.344 122.912 232.641 123.041C232.941 123.166 233.195 123.344 233.402 123.574C233.609 123.805 233.768 124.08 233.877 124.4C233.986 124.721 234.041 125.074 234.041 125.461C234.041 125.594 234.035 125.717 234.023 125.83C234.012 125.943 233.998 126.041 233.982 126.123C233.967 126.221 233.949 126.309 233.93 126.387L230.086 126.369C230.09 126.717 230.127 127.006 230.197 127.236C230.268 127.463 230.371 127.643 230.508 127.775C230.648 127.908 230.824 128.002 231.035 128.057C231.246 128.107 231.496 128.133 231.785 128.133C232.031 128.133 232.252 128.117 232.447 128.086C232.643 128.055 232.809 128.018 232.945 127.975C233.102 127.928 233.242 127.873 233.367 127.811C233.426 127.947 233.471 128.074 233.502 128.191C233.537 128.309 233.562 128.41 233.578 128.496C233.594 128.598 233.605 128.688 233.613 128.766C233.484 128.832 233.328 128.891 233.145 128.941C232.988 128.984 232.797 129.023 232.57 129.059C232.344 129.098 232.082 129.117 231.785 129.117C231.316 129.117 230.898 129.064 230.531 128.959C230.168 128.854 229.859 128.682 229.605 128.443C229.355 128.201 229.164 127.887 229.031 127.5C228.902 127.109 228.838 126.631 228.838 126.064ZM232.787 125.514V125.314C232.787 125.068 232.756 124.852 232.693 124.664C232.635 124.473 232.553 124.312 232.447 124.184C232.342 124.055 232.217 123.957 232.072 123.891C231.928 123.824 231.771 123.791 231.604 123.791C231.357 123.791 231.141 123.824 230.953 123.891C230.766 123.953 230.607 124.055 230.479 124.195C230.354 124.332 230.26 124.51 230.197 124.729C230.135 124.947 230.104 125.209 230.104 125.514H232.787ZM235.008 128.73C235.008 128.641 235.016 128.543 235.031 128.438C235.043 128.348 235.061 128.246 235.084 128.133C235.111 128.016 235.15 127.895 235.201 127.77C235.373 127.836 235.553 127.895 235.74 127.945C235.9 127.988 236.074 128.029 236.262 128.068C236.449 128.104 236.635 128.121 236.818 128.121C236.982 128.121 237.135 128.115 237.275 128.104C237.416 128.092 237.537 128.061 237.639 128.01C237.744 127.955 237.826 127.875 237.885 127.77C237.943 127.66 237.973 127.51 237.973 127.318C237.973 127.088 237.9 126.906 237.756 126.773C237.615 126.641 237.369 126.541 237.018 126.475C236.654 126.404 236.348 126.311 236.098 126.193C235.852 126.076 235.65 125.941 235.494 125.789C235.342 125.633 235.23 125.459 235.16 125.268C235.094 125.076 235.061 124.871 235.061 124.652C235.061 124.324 235.113 124.045 235.219 123.814C235.324 123.584 235.477 123.398 235.676 123.258C235.879 123.113 236.129 123.01 236.426 122.947C236.727 122.881 237.07 122.848 237.457 122.848C237.727 122.848 237.965 122.867 238.172 122.906C238.383 122.941 238.559 122.98 238.699 123.023C238.863 123.074 239.006 123.133 239.127 123.199C239.115 123.285 239.094 123.379 239.062 123.48C239.035 123.566 238.998 123.664 238.951 123.773C238.908 123.883 238.85 123.994 238.775 124.107C238.67 124.045 238.549 123.99 238.412 123.943C238.295 123.9 238.154 123.863 237.99 123.832C237.826 123.797 237.639 123.779 237.428 123.779C237.264 123.779 237.111 123.787 236.971 123.803C236.834 123.818 236.715 123.854 236.613 123.908C236.516 123.963 236.439 124.047 236.385 124.16C236.33 124.27 236.303 124.42 236.303 124.611C236.303 124.705 236.314 124.791 236.338 124.869C236.365 124.943 236.416 125.012 236.49 125.074C236.568 125.137 236.676 125.195 236.812 125.25C236.953 125.301 237.139 125.352 237.369 125.402C237.729 125.48 238.027 125.57 238.266 125.672C238.508 125.773 238.699 125.896 238.84 126.041C238.984 126.186 239.086 126.355 239.145 126.551C239.207 126.742 239.238 126.971 239.238 127.236C239.238 127.521 239.193 127.779 239.104 128.01C239.014 128.24 238.873 128.438 238.682 128.602C238.49 128.766 238.244 128.893 237.943 128.982C237.643 129.072 237.279 129.117 236.854 129.117C236.58 129.117 236.33 129.098 236.104 129.059C235.881 129.02 235.688 128.975 235.523 128.924C235.332 128.869 235.16 128.805 235.008 128.73ZM240.504 123.012H241.758V126.926C241.758 127.344 241.84 127.654 242.004 127.857C242.168 128.057 242.443 128.156 242.83 128.156C243.018 128.156 243.188 128.141 243.34 128.109C243.492 128.078 243.625 128.041 243.738 127.998C243.867 127.951 243.982 127.896 244.084 127.834V123.012H245.344V128.033L245.865 128.631V129H244.734L244.271 128.537H244.049C244.018 128.561 243.959 128.604 243.873 128.666C243.787 128.729 243.676 128.795 243.539 128.865C243.406 128.932 243.252 128.99 243.076 129.041C242.9 129.092 242.709 129.117 242.502 129.117C242.174 129.117 241.885 129.068 241.635 128.971C241.385 128.873 241.176 128.734 241.008 128.555C240.84 128.371 240.713 128.152 240.627 127.898C240.545 127.641 240.504 127.354 240.504 127.037V123.012ZM246.645 127.289C246.645 126.965 246.691 126.689 246.785 126.463C246.879 126.236 247.016 126.051 247.195 125.906C247.379 125.762 247.6 125.654 247.857 125.584C248.119 125.51 248.418 125.463 248.754 125.443L250.061 125.373V124.904C250.061 124.693 250.041 124.52 250.002 124.383C249.967 124.246 249.906 124.137 249.82 124.055C249.734 123.973 249.619 123.916 249.475 123.885C249.334 123.85 249.158 123.832 248.947 123.832C248.736 123.832 248.535 123.855 248.344 123.902C248.156 123.949 247.992 124 247.852 124.055C247.684 124.121 247.529 124.195 247.389 124.277C247.303 124.156 247.234 124.041 247.184 123.932C247.133 123.818 247.094 123.717 247.066 123.627C247.031 123.525 247.008 123.428 246.996 123.334C247.184 123.24 247.385 123.158 247.6 123.088C247.787 123.025 248.002 122.969 248.244 122.918C248.49 122.867 248.748 122.842 249.018 122.842C249.463 122.842 249.832 122.881 250.125 122.959C250.418 123.037 250.65 123.156 250.822 123.316C250.998 123.473 251.119 123.672 251.186 123.914C251.256 124.152 251.291 124.436 251.291 124.764V128.033L251.783 128.631V129H250.699L250.248 128.479H250.037C250.018 128.498 249.965 128.543 249.879 128.613C249.797 128.68 249.689 128.752 249.557 128.83C249.428 128.904 249.279 128.971 249.111 129.029C248.947 129.088 248.771 129.117 248.584 129.117C248.291 129.117 248.025 129.074 247.787 128.988C247.549 128.898 247.344 128.773 247.172 128.613C247.004 128.449 246.873 128.256 246.779 128.033C246.689 127.807 246.645 127.559 246.645 127.289ZM247.922 127.184C247.922 127.363 247.947 127.514 247.998 127.635C248.049 127.752 248.119 127.846 248.209 127.916C248.303 127.986 248.414 128.035 248.543 128.062C248.676 128.09 248.822 128.104 248.982 128.104C249.131 128.104 249.27 128.086 249.398 128.051C249.531 128.012 249.646 127.969 249.744 127.922C249.857 127.871 249.963 127.811 250.061 127.74V126.164L248.883 126.24C248.699 126.252 248.545 126.283 248.42 126.334C248.299 126.385 248.201 126.451 248.127 126.533C248.053 126.615 248 126.713 247.969 126.826C247.938 126.936 247.922 127.055 247.922 127.184ZM253.582 121.998C253.473 121.998 253.369 121.979 253.271 121.939C253.178 121.9 253.094 121.848 253.02 121.781C252.949 121.715 252.893 121.639 252.85 121.553C252.807 121.463 252.785 121.367 252.785 121.266C252.785 121.16 252.807 121.062 252.85 120.973C252.893 120.883 252.949 120.805 253.02 120.738C253.094 120.672 253.178 120.621 253.271 120.586C253.369 120.547 253.473 120.527 253.582 120.527C253.691 120.527 253.795 120.547 253.893 120.586C253.99 120.621 254.074 120.672 254.145 120.738C254.219 120.805 254.277 120.883 254.32 120.973C254.363 121.062 254.385 121.16 254.385 121.266C254.385 121.367 254.363 121.463 254.32 121.553C254.277 121.639 254.219 121.715 254.145 121.781C254.074 121.848 253.99 121.9 253.893 121.939C253.795 121.979 253.691 121.998 253.582 121.998ZM252.908 123.012H254.127V128.016L254.473 128.262V129H254.139L254.127 128.988V129C253.74 129 253.439 128.922 253.225 128.766C253.014 128.609 252.908 128.352 252.908 127.992V123.012ZM256.729 126.562C256.721 126.504 256.715 126.418 256.711 126.305C256.707 126.188 256.703 126.066 256.699 125.941C256.699 125.816 256.697 125.699 256.693 125.59C256.693 125.48 256.693 125.404 256.693 125.361C256.693 125.186 256.709 125.033 256.74 124.904C256.775 124.771 256.828 124.654 256.898 124.553C256.969 124.451 257.059 124.361 257.168 124.283C257.277 124.205 257.408 124.129 257.561 124.055C257.9 123.891 258.148 123.707 258.305 123.504C258.461 123.301 258.539 123.088 258.539 122.865C258.539 122.479 258.424 122.203 258.193 122.039C257.967 121.871 257.654 121.787 257.256 121.787C257.037 121.787 256.836 121.818 256.652 121.881C256.473 121.939 256.314 122.004 256.178 122.074C256.021 122.156 255.879 122.25 255.75 122.355C255.652 122.215 255.576 122.088 255.521 121.975C255.471 121.857 255.432 121.758 255.404 121.676C255.373 121.578 255.355 121.492 255.352 121.418C255.496 121.297 255.67 121.188 255.873 121.09C256.049 121.008 256.266 120.934 256.523 120.867C256.781 120.797 257.084 120.762 257.432 120.762C257.787 120.762 258.115 120.805 258.416 120.891C258.717 120.973 258.977 121.096 259.195 121.26C259.414 121.424 259.584 121.627 259.705 121.869C259.83 122.107 259.893 122.381 259.893 122.689C259.893 122.955 259.846 123.197 259.752 123.416C259.658 123.631 259.535 123.826 259.383 124.002C259.23 124.174 259.055 124.328 258.855 124.465C258.66 124.602 258.461 124.725 258.258 124.834C258.121 124.904 258.014 124.982 257.936 125.068C257.861 125.154 257.805 125.264 257.766 125.396C257.727 125.525 257.701 125.688 257.689 125.883C257.682 126.074 257.678 126.314 257.678 126.604C257.584 126.627 257.506 126.645 257.443 126.656C257.385 126.668 257.318 126.674 257.244 126.674C257.096 126.674 256.959 126.658 256.834 126.627L256.729 126.562ZM256.348 128.191C256.348 128.082 256.369 127.979 256.412 127.881C256.459 127.783 256.521 127.697 256.6 127.623C256.678 127.549 256.77 127.492 256.875 127.453C256.98 127.41 257.094 127.389 257.215 127.389C257.336 127.389 257.449 127.41 257.555 127.453C257.66 127.492 257.752 127.549 257.83 127.623C257.908 127.697 257.969 127.783 258.012 127.881C258.059 127.979 258.082 128.082 258.082 128.191C258.082 128.305 258.059 128.412 258.012 128.514C257.969 128.611 257.908 128.697 257.83 128.771C257.752 128.842 257.66 128.898 257.555 128.941C257.449 128.984 257.336 129.006 257.215 129.006C257.094 129.006 256.98 128.984 256.875 128.941C256.77 128.898 256.678 128.842 256.6 128.771C256.521 128.697 256.459 128.611 256.412 128.514C256.369 128.412 256.348 128.305 256.348 128.191Z" fill="url(#paint10_linear_60_24)"/>
<path d="M151.771 83.3691H154.213C154.47 83.3691 154.711 83.4049 154.936 83.4766C155.16 83.5449 155.354 83.6507 155.517 83.7939C155.679 83.9339 155.808 84.1097 155.902 84.3213C155.997 84.5296 156.044 84.7721 156.044 85.0488C156.044 85.1953 156.018 85.3402 155.966 85.4834C155.917 85.6266 155.847 85.7617 155.756 85.8887C155.668 86.0124 155.564 86.123 155.443 86.2207C155.323 86.3151 155.193 86.3867 155.053 86.4355C155.199 86.4616 155.346 86.5169 155.492 86.6016C155.639 86.6862 155.771 86.7985 155.888 86.9385C156.005 87.0785 156.099 87.2428 156.171 87.4316C156.246 87.6172 156.283 87.8223 156.283 88.0469C156.283 88.3561 156.236 88.6312 156.142 88.8721C156.05 89.113 155.912 89.318 155.727 89.4873C155.541 89.6533 155.312 89.7803 155.038 89.8682C154.765 89.9561 154.447 90 154.086 90H151.771V83.3691ZM153.969 89.1699C154.148 89.1699 154.309 89.1504 154.452 89.1113C154.599 89.0723 154.724 89.0088 154.828 88.9209C154.932 88.833 155.012 88.7191 155.067 88.5791C155.126 88.4391 155.155 88.2682 155.155 88.0664C155.155 87.8613 155.126 87.6904 155.067 87.5537C155.012 87.4137 154.934 87.3014 154.833 87.2168C154.735 87.1289 154.618 87.0671 154.481 87.0312C154.348 86.9954 154.203 86.9775 154.047 86.9775H152.88V89.1699H153.969ZM154.257 86.2402C154.485 86.1719 154.651 86.0417 154.755 85.8496C154.862 85.6543 154.916 85.3939 154.916 85.0684C154.916 84.7917 154.835 84.5768 154.672 84.4238C154.509 84.2676 154.285 84.1895 153.998 84.1895H152.88V86.2402H154.257ZM157.079 87.5537C157.079 87.085 157.136 86.6813 157.25 86.3428C157.364 86.0042 157.523 85.7259 157.729 85.5078C157.934 85.2897 158.178 85.1302 158.461 85.0293C158.747 84.9251 159.062 84.873 159.403 84.873C159.719 84.873 160.001 84.9268 160.248 85.0342C160.499 85.1383 160.71 85.2865 160.883 85.4785C161.055 85.6706 161.187 85.9001 161.278 86.167C161.369 86.4339 161.415 86.7285 161.415 87.0508C161.415 87.1615 161.41 87.264 161.4 87.3584C161.391 87.4528 161.379 87.5342 161.366 87.6025C161.353 87.6839 161.339 87.7572 161.322 87.8223L158.119 87.8076C158.122 88.0973 158.153 88.3382 158.212 88.5303C158.271 88.7191 158.357 88.8688 158.471 88.9795C158.588 89.0902 158.734 89.1683 158.91 89.2139C159.086 89.2562 159.294 89.2773 159.535 89.2773C159.74 89.2773 159.924 89.2643 160.087 89.2383C160.25 89.2122 160.388 89.1813 160.502 89.1455C160.632 89.1064 160.749 89.0609 160.854 89.0088C160.902 89.1227 160.94 89.2285 160.966 89.3262C160.995 89.4238 161.016 89.5085 161.029 89.5801C161.042 89.6647 161.052 89.7396 161.059 89.8047C160.951 89.86 160.821 89.9089 160.668 89.9512C160.538 89.987 160.378 90.0195 160.189 90.0488C160.001 90.0814 159.783 90.0977 159.535 90.0977C159.145 90.0977 158.796 90.0537 158.49 89.9658C158.188 89.8779 157.93 89.7347 157.719 89.5361C157.51 89.3343 157.351 89.0723 157.24 88.75C157.133 88.4245 157.079 88.0257 157.079 87.5537ZM160.37 87.0947V86.9287C160.37 86.7236 160.344 86.543 160.292 86.3867C160.243 86.2272 160.175 86.0938 160.087 85.9863C159.999 85.8789 159.895 85.7975 159.774 85.7422C159.654 85.6868 159.524 85.6592 159.384 85.6592C159.179 85.6592 158.998 85.6868 158.842 85.7422C158.686 85.7943 158.554 85.8789 158.446 85.9961C158.342 86.11 158.264 86.2581 158.212 86.4404C158.16 86.6227 158.134 86.8408 158.134 87.0947H160.37ZM163.09 84.9561L163.593 85.4834C163.629 85.402 163.674 85.3255 163.729 85.2539C163.788 85.179 163.855 85.1139 163.93 85.0586C164.008 85.0033 164.094 84.9593 164.188 84.9268C164.286 84.8942 164.392 84.8779 164.506 84.8779C164.6 84.8779 164.691 84.8861 164.779 84.9023C164.867 84.9154 164.963 84.9398 165.067 84.9756C165.071 84.9821 165.074 85.0081 165.077 85.0537C165.084 85.0993 165.087 85.1562 165.087 85.2246C165.087 85.2767 165.084 85.3385 165.077 85.4102C165.071 85.4785 165.059 85.5501 165.043 85.625C165.03 85.6966 165.009 85.7682 164.979 85.8398C164.953 85.9115 164.919 85.9733 164.877 86.0254L164.784 86.0498C164.719 86.0173 164.646 85.9896 164.564 85.9668C164.486 85.944 164.405 85.9326 164.32 85.9326C164.19 85.9326 164.081 85.9424 163.993 85.9619C163.905 85.9782 163.834 85.9961 163.778 86.0156C163.713 86.0384 163.661 86.0645 163.622 86.0938V90H162.577V85.9033L162.191 85.5078V84.9561H163.09ZM165.614 87.5928C165.614 87.1273 165.679 86.7236 165.81 86.3818C165.94 86.04 166.116 85.7568 166.337 85.5322C166.562 85.3076 166.82 85.1416 167.113 85.0342C167.406 84.9235 167.717 84.8682 168.046 84.8682C168.17 84.8682 168.28 84.8747 168.378 84.8877C168.476 84.8975 168.559 84.9105 168.627 84.9268C168.708 84.943 168.78 84.9626 168.842 84.9854V82.9736H169.882V89.1943L170.312 89.6924V90H169.335L168.998 89.6143H168.832C168.816 89.6305 168.782 89.6647 168.729 89.7168C168.681 89.7689 168.609 89.8226 168.515 89.8779C168.424 89.9333 168.31 89.9837 168.173 90.0293C168.039 90.0749 167.882 90.0977 167.699 90.0977C167.458 90.0977 167.214 90.0488 166.967 89.9512C166.719 89.8535 166.495 89.7021 166.293 89.4971C166.094 89.292 165.932 89.0332 165.805 88.7207C165.678 88.4049 165.614 88.029 165.614 87.5928ZM166.708 87.5928C166.708 87.8955 166.739 88.1543 166.801 88.3691C166.866 88.584 166.957 88.7614 167.074 88.9014C167.191 89.0381 167.335 89.139 167.504 89.2041C167.673 89.266 167.864 89.2969 168.075 89.2969C168.157 89.2969 168.243 89.2839 168.334 89.2578C168.425 89.2318 168.508 89.2008 168.583 89.165C168.671 89.1292 168.757 89.0853 168.842 89.0332V85.7324C168.799 85.7064 168.736 85.6803 168.651 85.6543C168.57 85.6283 168.456 85.6152 168.31 85.6152C167.799 85.6152 167.403 85.7845 167.123 86.123C166.846 86.4583 166.708 86.9482 166.708 87.5928ZM170.863 88.5742C170.863 88.304 170.902 88.0745 170.98 87.8857C171.059 87.6969 171.173 87.5423 171.322 87.4219C171.475 87.3014 171.659 87.2119 171.874 87.1533C172.092 87.0915 172.341 87.0524 172.621 87.0361L173.71 86.9775V86.5869C173.71 86.4111 173.694 86.2663 173.661 86.1523C173.632 86.0384 173.581 85.9473 173.51 85.8789C173.438 85.8105 173.342 85.7633 173.222 85.7373C173.104 85.708 172.958 85.6934 172.782 85.6934C172.606 85.6934 172.439 85.7129 172.279 85.752C172.123 85.791 171.986 85.8333 171.869 85.8789C171.729 85.9342 171.601 85.9961 171.483 86.0645C171.412 85.9635 171.355 85.8675 171.312 85.7764C171.27 85.682 171.238 85.5973 171.215 85.5225C171.186 85.4378 171.166 85.3564 171.156 85.2783C171.312 85.2002 171.48 85.1318 171.659 85.0732C171.815 85.0212 171.994 84.974 172.196 84.9316C172.401 84.8893 172.616 84.8682 172.841 84.8682C173.212 84.8682 173.52 84.9007 173.764 84.9658C174.008 85.0309 174.201 85.1302 174.345 85.2637C174.491 85.3939 174.592 85.5599 174.647 85.7617C174.706 85.9603 174.735 86.1963 174.735 86.4697V89.1943L175.146 89.6924V90H174.242L173.866 89.5654H173.69C173.674 89.5817 173.63 89.6191 173.559 89.6777C173.49 89.7331 173.401 89.7933 173.29 89.8584C173.183 89.9202 173.059 89.9756 172.919 90.0244C172.782 90.0732 172.636 90.0977 172.479 90.0977C172.235 90.0977 172.014 90.0618 171.815 89.9902C171.617 89.9154 171.446 89.8112 171.303 89.6777C171.163 89.541 171.054 89.3799 170.976 89.1943C170.901 89.0055 170.863 88.7988 170.863 88.5742ZM171.928 88.4863C171.928 88.6361 171.949 88.7614 171.991 88.8623C172.034 88.96 172.092 89.0381 172.167 89.0967C172.245 89.1553 172.338 89.196 172.445 89.2188C172.556 89.2415 172.678 89.2529 172.812 89.2529C172.935 89.2529 173.051 89.2383 173.158 89.209C173.269 89.1764 173.365 89.1406 173.446 89.1016C173.541 89.0592 173.629 89.0088 173.71 88.9502V87.6367L172.729 87.7002C172.576 87.71 172.447 87.736 172.343 87.7783C172.242 87.8206 172.16 87.876 172.099 87.9443C172.037 88.0127 171.993 88.0941 171.967 88.1885C171.941 88.2796 171.928 88.3789 171.928 88.4863ZM175.814 89.7754C175.814 89.7005 175.821 89.6191 175.834 89.5312C175.844 89.4564 175.858 89.3717 175.878 89.2773C175.901 89.1797 175.933 89.0788 175.976 88.9746C176.119 89.0299 176.269 89.0788 176.425 89.1211C176.558 89.1569 176.703 89.1911 176.859 89.2236C177.016 89.2529 177.17 89.2676 177.323 89.2676C177.46 89.2676 177.587 89.2627 177.704 89.2529C177.821 89.2432 177.922 89.2171 178.007 89.1748C178.095 89.1292 178.163 89.0625 178.212 88.9746C178.261 88.8835 178.285 88.7581 178.285 88.5986C178.285 88.4066 178.225 88.2552 178.104 88.1445C177.987 88.0339 177.782 87.9508 177.489 87.8955C177.187 87.8369 176.931 87.7588 176.723 87.6611C176.518 87.5635 176.35 87.4512 176.22 87.3242C176.093 87.194 176 87.0492 175.941 86.8896C175.886 86.7301 175.858 86.5592 175.858 86.377C175.858 86.1035 175.902 85.8708 175.99 85.6787C176.078 85.4867 176.205 85.332 176.371 85.2148C176.54 85.0944 176.749 85.0081 176.996 84.9561C177.247 84.9007 177.533 84.873 177.855 84.873C178.08 84.873 178.279 84.8893 178.451 84.9219C178.627 84.9512 178.773 84.9837 178.891 85.0195C179.027 85.0618 179.146 85.1107 179.247 85.166C179.237 85.2376 179.219 85.3158 179.193 85.4004C179.171 85.472 179.14 85.5534 179.101 85.6445C179.065 85.7357 179.016 85.8285 178.954 85.9229C178.866 85.8708 178.765 85.8252 178.651 85.7861C178.554 85.7503 178.437 85.7194 178.3 85.6934C178.163 85.6641 178.007 85.6494 177.831 85.6494C177.694 85.6494 177.567 85.6559 177.45 85.6689C177.336 85.682 177.237 85.7113 177.152 85.7568C177.071 85.8024 177.007 85.8724 176.962 85.9668C176.916 86.0579 176.894 86.1833 176.894 86.3428C176.894 86.4209 176.903 86.4925 176.923 86.5576C176.946 86.6195 176.988 86.6764 177.05 86.7285C177.115 86.7806 177.204 86.8294 177.318 86.875C177.436 86.9173 177.59 86.9596 177.782 87.002C178.082 87.0671 178.331 87.1419 178.529 87.2266C178.731 87.3112 178.891 87.4137 179.008 87.5342C179.128 87.6546 179.213 87.7962 179.262 87.959C179.314 88.1185 179.34 88.3089 179.34 88.5303C179.34 88.7679 179.302 88.9827 179.228 89.1748C179.153 89.3669 179.035 89.5312 178.876 89.668C178.716 89.8047 178.511 89.9105 178.261 89.9854C178.01 90.0602 177.707 90.0977 177.353 90.0977C177.125 90.0977 176.916 90.0814 176.728 90.0488C176.542 90.0163 176.381 89.9788 176.244 89.9365C176.085 89.891 175.941 89.8372 175.814 89.7754ZM180.16 88.5742C180.16 88.304 180.199 88.0745 180.277 87.8857C180.355 87.6969 180.469 87.5423 180.619 87.4219C180.772 87.3014 180.956 87.2119 181.171 87.1533C181.389 87.0915 181.638 87.0524 181.918 87.0361L183.007 86.9775V86.5869C183.007 86.4111 182.991 86.2663 182.958 86.1523C182.929 86.0384 182.878 85.9473 182.807 85.8789C182.735 85.8105 182.639 85.7633 182.519 85.7373C182.401 85.708 182.255 85.6934 182.079 85.6934C181.903 85.6934 181.736 85.7129 181.576 85.752C181.42 85.791 181.283 85.8333 181.166 85.8789C181.026 85.9342 180.897 85.9961 180.78 86.0645C180.709 85.9635 180.652 85.8675 180.609 85.7764C180.567 85.682 180.535 85.5973 180.512 85.5225C180.482 85.4378 180.463 85.3564 180.453 85.2783C180.609 85.2002 180.777 85.1318 180.956 85.0732C181.112 85.0212 181.291 84.974 181.493 84.9316C181.698 84.8893 181.913 84.8682 182.138 84.8682C182.509 84.8682 182.816 84.9007 183.061 84.9658C183.305 85.0309 183.498 85.1302 183.642 85.2637C183.788 85.3939 183.889 85.5599 183.944 85.7617C184.003 85.9603 184.032 86.1963 184.032 86.4697V89.1943L184.442 89.6924V90H183.539L183.163 89.5654H182.987C182.971 89.5817 182.927 89.6191 182.855 89.6777C182.787 89.7331 182.698 89.7933 182.587 89.8584C182.479 89.9202 182.356 89.9756 182.216 90.0244C182.079 90.0732 181.933 90.0977 181.776 90.0977C181.532 90.0977 181.311 90.0618 181.112 89.9902C180.914 89.9154 180.743 89.8112 180.6 89.6777C180.46 89.541 180.351 89.3799 180.272 89.1943C180.198 89.0055 180.16 88.7988 180.16 88.5742ZM181.225 88.4863C181.225 88.6361 181.246 88.7614 181.288 88.8623C181.33 88.96 181.389 89.0381 181.464 89.0967C181.542 89.1553 181.635 89.196 181.742 89.2188C181.853 89.2415 181.975 89.2529 182.108 89.2529C182.232 89.2529 182.348 89.2383 182.455 89.209C182.566 89.1764 182.662 89.1406 182.743 89.1016C182.838 89.0592 182.925 89.0088 183.007 88.9502V87.6367L182.025 87.7002C181.872 87.71 181.744 87.736 181.64 87.7783C181.539 87.8206 181.457 87.876 181.396 87.9443C181.334 88.0127 181.29 88.0941 181.264 88.1885C181.238 88.2796 181.225 88.3789 181.225 88.4863ZM185.98 84.9561L186.483 85.4834C186.519 85.402 186.565 85.3255 186.62 85.2539C186.679 85.179 186.745 85.1139 186.82 85.0586C186.898 85.0033 186.985 84.9593 187.079 84.9268C187.177 84.8942 187.283 84.8779 187.396 84.8779C187.491 84.8779 187.582 84.8861 187.67 84.9023C187.758 84.9154 187.854 84.9398 187.958 84.9756C187.961 84.9821 187.965 85.0081 187.968 85.0537C187.974 85.0993 187.978 85.1562 187.978 85.2246C187.978 85.2767 187.974 85.3385 187.968 85.4102C187.961 85.4785 187.95 85.5501 187.934 85.625C187.921 85.6966 187.899 85.7682 187.87 85.8398C187.844 85.9115 187.81 85.9733 187.768 86.0254L187.675 86.0498C187.61 86.0173 187.536 85.9896 187.455 85.9668C187.377 85.944 187.296 85.9326 187.211 85.9326C187.081 85.9326 186.972 85.9424 186.884 85.9619C186.796 85.9782 186.724 85.9961 186.669 86.0156C186.604 86.0384 186.552 86.0645 186.513 86.0938V90H185.468V85.9033L185.082 85.5078V84.9561H185.98ZM188.783 82.9688H189.779V86.6846L189.73 87.3926L189.989 87.085L191.557 85.0098H192.738L191.151 87.0215L190.746 87.4072L191.063 87.6953L192.826 90H191.64L189.96 87.7441L189.73 87.4512L189.779 88.3398V90H188.783V82.9688ZM193.246 88.5742C193.246 88.304 193.285 88.0745 193.363 87.8857C193.441 87.6969 193.555 87.5423 193.705 87.4219C193.858 87.3014 194.042 87.2119 194.257 87.1533C194.475 87.0915 194.724 87.0524 195.004 87.0361L196.093 86.9775V86.5869C196.093 86.4111 196.076 86.2663 196.044 86.1523C196.015 86.0384 195.964 85.9473 195.893 85.8789C195.821 85.8105 195.725 85.7633 195.604 85.7373C195.487 85.708 195.341 85.6934 195.165 85.6934C194.989 85.6934 194.822 85.7129 194.662 85.752C194.506 85.791 194.369 85.8333 194.252 85.8789C194.112 85.9342 193.983 85.9961 193.866 86.0645C193.795 85.9635 193.738 85.8675 193.695 85.7764C193.653 85.682 193.62 85.5973 193.598 85.5225C193.568 85.4378 193.549 85.3564 193.539 85.2783C193.695 85.2002 193.863 85.1318 194.042 85.0732C194.198 85.0212 194.377 84.974 194.579 84.9316C194.784 84.8893 194.999 84.8682 195.224 84.8682C195.595 84.8682 195.902 84.9007 196.146 84.9658C196.391 85.0309 196.584 85.1302 196.728 85.2637C196.874 85.3939 196.975 85.5599 197.03 85.7617C197.089 85.9603 197.118 86.1963 197.118 86.4697V89.1943L197.528 89.6924V90H196.625L196.249 89.5654H196.073C196.057 89.5817 196.013 89.6191 195.941 89.6777C195.873 89.7331 195.784 89.7933 195.673 89.8584C195.565 89.9202 195.442 89.9756 195.302 90.0244C195.165 90.0732 195.019 90.0977 194.862 90.0977C194.618 90.0977 194.397 90.0618 194.198 89.9902C194 89.9154 193.829 89.8112 193.686 89.6777C193.546 89.541 193.437 89.3799 193.358 89.1943C193.284 89.0055 193.246 88.7988 193.246 88.5742ZM194.311 88.4863C194.311 88.6361 194.332 88.7614 194.374 88.8623C194.416 88.96 194.475 89.0381 194.55 89.0967C194.628 89.1553 194.721 89.196 194.828 89.2188C194.939 89.2415 195.061 89.2529 195.194 89.2529C195.318 89.2529 195.434 89.2383 195.541 89.209C195.652 89.1764 195.748 89.1406 195.829 89.1016C195.924 89.0592 196.011 89.0088 196.093 88.9502V87.6367L195.111 87.7002C194.958 87.71 194.83 87.736 194.726 87.7783C194.625 87.8206 194.543 87.876 194.481 87.9443C194.42 88.0127 194.376 88.0941 194.35 88.1885C194.324 88.2796 194.311 88.3789 194.311 88.4863ZM198.52 85.9033L198.134 85.5078V84.9561H199.032L199.452 85.3369L199.594 85.3076C199.617 85.2881 199.669 85.2539 199.75 85.2051C199.835 85.1562 199.937 85.1074 200.058 85.0586C200.181 85.0098 200.321 84.9674 200.478 84.9316C200.634 84.8926 200.798 84.873 200.971 84.873C201.244 84.873 201.487 84.9137 201.698 84.9951C201.913 85.0765 202.094 85.1937 202.24 85.3467C202.387 85.4964 202.497 85.6771 202.572 85.8887C202.647 86.1003 202.685 86.3379 202.685 86.6016V90H201.635V86.7041C201.635 86.3493 201.56 86.0889 201.41 85.9229C201.264 85.7536 201.029 85.6689 200.707 85.6689C200.548 85.6689 200.399 85.6836 200.263 85.7129C200.126 85.7389 200.006 85.7699 199.901 85.8057C199.781 85.8447 199.669 85.8903 199.564 85.9424V90H198.52V85.9033ZM206.85 82.9688H207.846V86.6846L207.797 87.3926L208.056 87.085L209.623 85.0098H210.805L209.218 87.0215L208.812 87.4072L209.13 87.6953L210.893 90H209.706L208.026 87.7441L207.797 87.4512L207.846 88.3398V90H206.85V82.9688ZM212.289 84.9561L212.792 85.4834C212.828 85.402 212.873 85.3255 212.929 85.2539C212.987 85.179 213.054 85.1139 213.129 85.0586C213.207 85.0033 213.293 84.9593 213.388 84.9268C213.485 84.8942 213.591 84.8779 213.705 84.8779C213.799 84.8779 213.891 84.8861 213.979 84.9023C214.066 84.9154 214.162 84.9398 214.267 84.9756C214.27 84.9821 214.273 85.0081 214.276 85.0537C214.283 85.0993 214.286 85.1562 214.286 85.2246C214.286 85.2767 214.283 85.3385 214.276 85.4102C214.27 85.4785 214.258 85.5501 214.242 85.625C214.229 85.6966 214.208 85.7682 214.179 85.8398C214.153 85.9115 214.118 85.9733 214.076 86.0254L213.983 86.0498C213.918 86.0173 213.845 85.9896 213.764 85.9668C213.686 85.944 213.604 85.9326 213.52 85.9326C213.389 85.9326 213.28 85.9424 213.192 85.9619C213.104 85.9782 213.033 85.9961 212.978 86.0156C212.912 86.0384 212.86 86.0645 212.821 86.0938V90H211.776V85.9033L211.391 85.5078V84.9561H212.289ZM215.678 84.165C215.587 84.165 215.5 84.1488 215.419 84.1162C215.341 84.0837 215.271 84.0397 215.209 83.9844C215.15 83.929 215.103 83.8656 215.067 83.7939C215.032 83.7191 215.014 83.6393 215.014 83.5547C215.014 83.4668 215.032 83.3854 215.067 83.3105C215.103 83.2357 215.15 83.1706 215.209 83.1152C215.271 83.0599 215.341 83.0176 215.419 82.9883C215.5 82.9557 215.587 82.9395 215.678 82.9395C215.769 82.9395 215.855 82.9557 215.937 82.9883C216.018 83.0176 216.088 83.0599 216.146 83.1152C216.208 83.1706 216.257 83.2357 216.293 83.3105C216.329 83.3854 216.347 83.4668 216.347 83.5547C216.347 83.6393 216.329 83.7191 216.293 83.7939C216.257 83.8656 216.208 83.929 216.146 83.9844C216.088 84.0397 216.018 84.0837 215.937 84.1162C215.855 84.1488 215.769 84.165 215.678 84.165ZM215.116 85.0098H216.132V89.1797L216.42 89.3848V90H216.142L216.132 89.9902V90C215.81 90 215.559 89.9349 215.38 89.8047C215.204 89.6745 215.116 89.4596 215.116 89.1602V85.0098ZM217.865 85.7666H217.226C217.222 85.7308 217.219 85.6917 217.216 85.6494C217.213 85.6136 217.209 85.5713 217.206 85.5225C217.206 85.4736 217.206 85.4199 217.206 85.3613C217.206 85.3027 217.208 85.249 217.211 85.2002C217.214 85.1481 217.219 85.0846 217.226 85.0098H217.865V84.2334L218.427 83.5986H218.861V85.0098H220.243C220.25 85.0423 220.255 85.0814 220.258 85.127C220.264 85.1725 220.268 85.2165 220.268 85.2588C220.268 85.3337 220.259 85.402 220.243 85.4639C220.23 85.5257 220.215 85.5794 220.199 85.625C220.18 85.6771 220.157 85.7243 220.131 85.7666H218.861V88.5986C218.861 88.8363 218.9 89.0088 218.979 89.1162C219.06 89.2236 219.188 89.2773 219.364 89.2773C219.439 89.2773 219.517 89.2692 219.599 89.2529C219.683 89.2334 219.763 89.2106 219.838 89.1846C219.923 89.1553 220.009 89.1227 220.097 89.0869C220.162 89.1715 220.212 89.2546 220.248 89.3359C220.287 89.4173 220.315 89.4906 220.331 89.5557C220.351 89.6305 220.362 89.7005 220.365 89.7656C220.274 89.8275 220.172 89.8828 220.058 89.9316C219.957 89.974 219.836 90.0114 219.696 90.0439C219.556 90.0798 219.395 90.0977 219.213 90.0977C218.959 90.0977 218.746 90.0651 218.573 90C218.404 89.9382 218.266 89.8454 218.158 89.7217C218.054 89.5947 217.979 89.4385 217.934 89.2529C217.888 89.0641 217.865 88.8477 217.865 88.6035V85.7666ZM220.985 87.5537C220.985 87.085 221.042 86.6813 221.156 86.3428C221.27 86.0042 221.43 85.7259 221.635 85.5078C221.84 85.2897 222.084 85.1302 222.367 85.0293C222.654 84.9251 222.968 84.873 223.31 84.873C223.625 84.873 223.907 84.9268 224.154 85.0342C224.405 85.1383 224.617 85.2865 224.789 85.4785C224.962 85.6706 225.093 85.9001 225.185 86.167C225.276 86.4339 225.321 86.7285 225.321 87.0508C225.321 87.1615 225.316 87.264 225.307 87.3584C225.297 87.4528 225.285 87.5342 225.272 87.6025C225.259 87.6839 225.245 87.7572 225.229 87.8223L222.025 87.8076C222.029 88.0973 222.06 88.3382 222.118 88.5303C222.177 88.7191 222.263 88.8688 222.377 88.9795C222.494 89.0902 222.641 89.1683 222.816 89.2139C222.992 89.2562 223.201 89.2773 223.441 89.2773C223.646 89.2773 223.83 89.2643 223.993 89.2383C224.156 89.2122 224.294 89.1813 224.408 89.1455C224.538 89.1064 224.656 89.0609 224.76 89.0088C224.809 89.1227 224.846 89.2285 224.872 89.3262C224.901 89.4238 224.923 89.5085 224.936 89.5801C224.949 89.6647 224.958 89.7396 224.965 89.8047C224.857 89.86 224.727 89.9089 224.574 89.9512C224.444 89.987 224.285 90.0195 224.096 90.0488C223.907 90.0814 223.689 90.0977 223.441 90.0977C223.051 90.0977 222.702 90.0537 222.396 89.9658C222.094 89.8779 221.837 89.7347 221.625 89.5361C221.417 89.3343 221.257 89.0723 221.146 88.75C221.039 88.4245 220.985 88.0257 220.985 87.5537ZM224.276 87.0947V86.9287C224.276 86.7236 224.25 86.543 224.198 86.3867C224.149 86.2272 224.081 86.0938 223.993 85.9863C223.905 85.8789 223.801 85.7975 223.681 85.7422C223.56 85.6868 223.43 85.6592 223.29 85.6592C223.085 85.6592 222.904 85.6868 222.748 85.7422C222.592 85.7943 222.46 85.8789 222.353 85.9961C222.248 86.11 222.17 86.2581 222.118 86.4404C222.066 86.6227 222.04 86.8408 222.04 87.0947H224.276ZM226.996 84.9561L227.499 85.4834C227.535 85.402 227.58 85.3255 227.636 85.2539C227.694 85.179 227.761 85.1139 227.836 85.0586C227.914 85.0033 228 84.9593 228.095 84.9268C228.192 84.8942 228.298 84.8779 228.412 84.8779C228.507 84.8779 228.598 84.8861 228.686 84.9023C228.773 84.9154 228.869 84.9398 228.974 84.9756C228.977 84.9821 228.98 85.0081 228.983 85.0537C228.99 85.0993 228.993 85.1562 228.993 85.2246C228.993 85.2767 228.99 85.3385 228.983 85.4102C228.977 85.4785 228.965 85.5501 228.949 85.625C228.936 85.6966 228.915 85.7682 228.886 85.8398C228.86 85.9115 228.826 85.9733 228.783 86.0254L228.69 86.0498C228.625 86.0173 228.552 85.9896 228.471 85.9668C228.393 85.944 228.311 85.9326 228.227 85.9326C228.096 85.9326 227.987 85.9424 227.899 85.9619C227.812 85.9782 227.74 85.9961 227.685 86.0156C227.619 86.0384 227.567 86.0645 227.528 86.0938V90H226.483V85.9033L226.098 85.5078V84.9561H226.996ZM230.385 84.165C230.294 84.165 230.207 84.1488 230.126 84.1162C230.048 84.0837 229.978 84.0397 229.916 83.9844C229.857 83.929 229.81 83.8656 229.774 83.7939C229.739 83.7191 229.721 83.6393 229.721 83.5547C229.721 83.4668 229.739 83.3854 229.774 83.3105C229.81 83.2357 229.857 83.1706 229.916 83.1152C229.978 83.0599 230.048 83.0176 230.126 82.9883C230.207 82.9557 230.294 82.9395 230.385 82.9395C230.476 82.9395 230.562 82.9557 230.644 82.9883C230.725 83.0176 230.795 83.0599 230.854 83.1152C230.915 83.1706 230.964 83.2357 231 83.3105C231.036 83.3854 231.054 83.4668 231.054 83.5547C231.054 83.6393 231.036 83.7191 231 83.7939C230.964 83.8656 230.915 83.929 230.854 83.9844C230.795 84.0397 230.725 84.0837 230.644 84.1162C230.562 84.1488 230.476 84.165 230.385 84.165ZM229.823 85.0098H230.839V89.1797L231.127 89.3848V90H230.849L230.839 89.9902V90C230.517 90 230.266 89.9349 230.087 89.8047C229.911 89.6745 229.823 89.4596 229.823 89.1602V85.0098ZM231.996 88.5742C231.996 88.304 232.035 88.0745 232.113 87.8857C232.191 87.6969 232.305 87.5423 232.455 87.4219C232.608 87.3014 232.792 87.2119 233.007 87.1533C233.225 87.0915 233.474 87.0524 233.754 87.0361L234.843 86.9775V86.5869C234.843 86.4111 234.826 86.2663 234.794 86.1523C234.765 86.0384 234.714 85.9473 234.643 85.8789C234.571 85.8105 234.475 85.7633 234.354 85.7373C234.237 85.708 234.091 85.6934 233.915 85.6934C233.739 85.6934 233.572 85.7129 233.412 85.752C233.256 85.791 233.119 85.8333 233.002 85.8789C232.862 85.9342 232.733 85.9961 232.616 86.0645C232.545 85.9635 232.488 85.8675 232.445 85.7764C232.403 85.682 232.37 85.5973 232.348 85.5225C232.318 85.4378 232.299 85.3564 232.289 85.2783C232.445 85.2002 232.613 85.1318 232.792 85.0732C232.948 85.0212 233.127 84.974 233.329 84.9316C233.534 84.8893 233.749 84.8682 233.974 84.8682C234.345 84.8682 234.652 84.9007 234.896 84.9658C235.141 85.0309 235.334 85.1302 235.478 85.2637C235.624 85.3939 235.725 85.5599 235.78 85.7617C235.839 85.9603 235.868 86.1963 235.868 86.4697V89.1943L236.278 89.6924V90H235.375L234.999 89.5654H234.823C234.807 89.5817 234.763 89.6191 234.691 89.6777C234.623 89.7331 234.534 89.7933 234.423 89.8584C234.315 89.9202 234.192 89.9756 234.052 90.0244C233.915 90.0732 233.769 90.0977 233.612 90.0977C233.368 90.0977 233.147 90.0618 232.948 89.9902C232.75 89.9154 232.579 89.8112 232.436 89.6777C232.296 89.541 232.187 89.3799 232.108 89.1943C232.034 89.0055 231.996 88.7988 231.996 88.5742ZM233.061 88.4863C233.061 88.6361 233.082 88.7614 233.124 88.8623C233.166 88.96 233.225 89.0381 233.3 89.0967C233.378 89.1553 233.471 89.196 233.578 89.2188C233.689 89.2415 233.811 89.2529 233.944 89.2529C234.068 89.2529 234.184 89.2383 234.291 89.209C234.402 89.1764 234.498 89.1406 234.579 89.1016C234.674 89.0592 234.761 89.0088 234.843 88.9502V87.6367L233.861 87.7002C233.708 87.71 233.58 87.736 233.476 87.7783C233.375 87.8206 233.293 87.876 233.231 87.9443C233.17 88.0127 233.126 88.0941 233.1 88.1885C233.074 88.2796 233.061 88.3789 233.061 88.4863ZM151.771 93.3691H152.875V100H151.771V93.3691ZM154.389 95.9033L154.003 95.5078V94.9561H154.901L155.321 95.3369L155.463 95.3076C155.486 95.2881 155.538 95.2539 155.619 95.2051C155.704 95.1562 155.806 95.1074 155.927 95.0586C156.05 95.0098 156.19 94.9674 156.347 94.9316C156.503 94.8926 156.667 94.873 156.84 94.873C157.113 94.873 157.356 94.9137 157.567 94.9951C157.782 95.0765 157.963 95.1937 158.109 95.3467C158.256 95.4964 158.367 95.6771 158.441 95.8887C158.516 96.1003 158.554 96.3379 158.554 96.6016V100H157.504V96.7041C157.504 96.3493 157.429 96.0889 157.279 95.9229C157.133 95.7536 156.898 95.6689 156.576 95.6689C156.417 95.6689 156.269 95.6836 156.132 95.7129C155.995 95.7389 155.875 95.7699 155.771 95.8057C155.65 95.8447 155.538 95.8903 155.434 95.9424V100H154.389V95.9033ZM160.258 95.7666H159.535C159.525 95.6885 159.519 95.6152 159.516 95.5469C159.512 95.4785 159.511 95.4167 159.511 95.3613C159.511 95.2604 159.516 95.1774 159.525 95.1123C159.529 95.0765 159.534 95.0423 159.54 95.0098H160.258V94.4727C160.258 94.2676 160.289 94.069 160.351 93.877C160.416 93.6816 160.513 93.5107 160.644 93.3643C160.777 93.2145 160.945 93.0957 161.146 93.0078C161.348 92.9167 161.589 92.8711 161.869 92.8711C162.006 92.8711 162.125 92.8776 162.226 92.8906C162.326 92.9036 162.413 92.9183 162.484 92.9346C162.569 92.9541 162.641 92.9753 162.699 92.998C162.693 93.0794 162.681 93.1641 162.665 93.252C162.649 93.3268 162.624 93.4131 162.592 93.5107C162.562 93.6051 162.522 93.7012 162.47 93.7988C162.421 93.7858 162.367 93.7728 162.309 93.7598C162.26 93.75 162.203 93.7402 162.138 93.7305C162.073 93.7207 162.007 93.7158 161.942 93.7158C161.721 93.7158 161.555 93.7777 161.444 93.9014C161.337 94.0218 161.283 94.222 161.283 94.502V95.0098H162.382C162.385 95.0228 162.388 95.0391 162.392 95.0586C162.395 95.0749 162.398 95.096 162.401 95.1221C162.405 95.1449 162.406 95.1725 162.406 95.2051C162.406 95.2702 162.396 95.3499 162.377 95.4443C162.361 95.5387 162.323 95.6462 162.265 95.7666H161.283V100H160.258V95.7666ZM163.021 97.5049C163.021 97.0752 163.078 96.696 163.192 96.3672C163.31 96.0384 163.472 95.7633 163.681 95.542C163.892 95.3206 164.143 95.153 164.433 95.0391C164.726 94.9251 165.048 94.8682 165.399 94.8682C165.761 94.8682 166.086 94.9219 166.376 95.0293C166.666 95.1335 166.911 95.293 167.113 95.5078C167.315 95.7227 167.47 95.9912 167.577 96.3135C167.685 96.6325 167.738 97.0068 167.738 97.4365C167.738 97.8662 167.683 98.2471 167.572 98.5791C167.465 98.9111 167.309 99.1895 167.104 99.4141C166.902 99.6387 166.656 99.8096 166.366 99.9268C166.08 100.041 165.757 100.098 165.399 100.098C165.028 100.098 164.695 100.044 164.398 99.9365C164.105 99.8258 163.856 99.6631 163.651 99.4482C163.45 99.2301 163.293 98.96 163.183 98.6377C163.075 98.3122 163.021 97.9346 163.021 97.5049ZM165.399 99.292C165.614 99.292 165.8 99.2464 165.956 99.1553C166.116 99.0609 166.246 98.9323 166.347 98.7695C166.448 98.6035 166.522 98.4082 166.571 98.1836C166.62 97.9557 166.645 97.7067 166.645 97.4365C166.645 96.8538 166.545 96.4095 166.347 96.1035C166.148 95.7975 165.832 95.6445 165.399 95.6445C165.181 95.6445 164.991 95.6917 164.828 95.7861C164.669 95.8773 164.535 96.0059 164.428 96.1719C164.324 96.3379 164.245 96.5348 164.193 96.7627C164.141 96.9906 164.115 97.238 164.115 97.5049C164.115 98.0941 164.219 98.54 164.428 98.8428C164.639 99.1423 164.963 99.292 165.399 99.292ZM169.398 94.9561L169.901 95.4834C169.937 95.402 169.983 95.3255 170.038 95.2539C170.097 95.179 170.163 95.1139 170.238 95.0586C170.316 95.0033 170.403 94.9593 170.497 94.9268C170.595 94.8942 170.701 94.8779 170.814 94.8779C170.909 94.8779 171 94.8861 171.088 94.9023C171.176 94.9154 171.272 94.9398 171.376 94.9756C171.379 94.9821 171.382 95.0081 171.386 95.0537C171.392 95.0993 171.396 95.1562 171.396 95.2246C171.396 95.2767 171.392 95.3385 171.386 95.4102C171.379 95.4785 171.368 95.5501 171.352 95.625C171.339 95.6966 171.317 95.7682 171.288 95.8398C171.262 95.9115 171.228 95.9733 171.186 96.0254L171.093 96.0498C171.028 96.0173 170.954 95.9896 170.873 95.9668C170.795 95.944 170.714 95.9326 170.629 95.9326C170.499 95.9326 170.39 95.9424 170.302 95.9619C170.214 95.9782 170.142 95.9961 170.087 96.0156C170.022 96.0384 169.97 96.0645 169.931 96.0938V100H168.886V95.9033L168.5 95.5078V94.9561H169.398ZM171.894 95.5078V94.9561H172.792L173.212 95.3809L173.344 95.3027C173.36 95.2865 173.407 95.2555 173.485 95.21C173.567 95.1611 173.668 95.1123 173.788 95.0635C173.909 95.0114 174.044 94.9658 174.193 94.9268C174.346 94.8877 174.501 94.8682 174.657 94.8682C174.947 94.8682 175.185 94.9105 175.37 94.9951C175.559 95.0798 175.723 95.2018 175.863 95.3613C175.915 95.319 175.992 95.2702 176.093 95.2148C176.194 95.1562 176.309 95.1009 176.439 95.0488C176.573 94.9967 176.716 94.9544 176.869 94.9219C177.022 94.8861 177.177 94.8682 177.333 94.8682C177.606 94.8682 177.855 94.9089 178.08 94.9902C178.308 95.0716 178.502 95.1888 178.661 95.3418C178.824 95.4915 178.949 95.6722 179.037 95.8838C179.128 96.0954 179.174 96.333 179.174 96.5967V100H178.124V96.6992C178.124 96.3477 178.03 96.0872 177.841 95.918C177.652 95.7487 177.395 95.6641 177.069 95.6641C176.877 95.6641 176.697 95.6803 176.527 95.7129C176.361 95.7422 176.238 95.7747 176.156 95.8105C176.202 95.9147 176.238 96.0254 176.264 96.1426C176.29 96.2598 176.303 96.3786 176.303 96.499V100H175.253V96.6016C175.253 96.2858 175.188 96.0514 175.058 95.8984C174.927 95.7422 174.704 95.6641 174.389 95.6641C174.239 95.6641 174.099 95.6787 173.969 95.708C173.839 95.734 173.726 95.765 173.632 95.8008C173.521 95.8398 173.419 95.8838 173.324 95.9326V100H172.279V95.9033L171.894 95.5078ZM180.189 98.5742C180.189 98.304 180.229 98.0745 180.307 97.8857C180.385 97.6969 180.499 97.5423 180.648 97.4219C180.801 97.3014 180.985 97.2119 181.2 97.1533C181.418 97.0915 181.667 97.0524 181.947 97.0361L183.036 96.9775V96.5869C183.036 96.4111 183.02 96.2663 182.987 96.1523C182.958 96.0384 182.908 95.9473 182.836 95.8789C182.764 95.8105 182.668 95.7633 182.548 95.7373C182.431 95.708 182.284 95.6934 182.108 95.6934C181.933 95.6934 181.765 95.7129 181.605 95.752C181.449 95.791 181.312 95.8333 181.195 95.8789C181.055 95.9342 180.927 95.9961 180.81 96.0645C180.738 95.9635 180.681 95.8675 180.639 95.7764C180.596 95.682 180.564 95.5973 180.541 95.5225C180.512 95.4378 180.492 95.3564 180.482 95.2783C180.639 95.2002 180.806 95.1318 180.985 95.0732C181.142 95.0212 181.321 94.974 181.522 94.9316C181.728 94.8893 181.942 94.8682 182.167 94.8682C182.538 94.8682 182.846 94.9007 183.09 94.9658C183.334 95.0309 183.528 95.1302 183.671 95.2637C183.817 95.3939 183.918 95.5599 183.974 95.7617C184.032 95.9603 184.062 96.1963 184.062 96.4697V99.1943L184.472 99.6924V100H183.568L183.192 99.5654H183.017C183 99.5817 182.956 99.6191 182.885 99.6777C182.816 99.7331 182.727 99.7933 182.616 99.8584C182.509 99.9202 182.385 99.9756 182.245 100.024C182.108 100.073 181.962 100.098 181.806 100.098C181.562 100.098 181.34 100.062 181.142 99.9902C180.943 99.9154 180.772 99.8112 180.629 99.6777C180.489 99.541 180.38 99.3799 180.302 99.1943C180.227 99.0055 180.189 98.7988 180.189 98.5742ZM181.254 98.4863C181.254 98.6361 181.275 98.7614 181.317 98.8623C181.36 98.96 181.418 99.0381 181.493 99.0967C181.571 99.1553 181.664 99.196 181.771 99.2188C181.882 99.2415 182.004 99.2529 182.138 99.2529C182.261 99.2529 182.377 99.2383 182.484 99.209C182.595 99.1764 182.691 99.1406 182.772 99.1016C182.867 99.0592 182.955 99.0088 183.036 98.9502V97.6367L182.055 97.7002C181.902 97.71 181.773 97.736 181.669 97.7783C181.568 97.8206 181.487 97.876 181.425 97.9443C181.363 98.0127 181.319 98.0941 181.293 98.1885C181.267 98.2796 181.254 98.3789 181.254 98.4863ZM185.141 99.7754C185.141 99.7005 185.147 99.6191 185.16 99.5312C185.17 99.4564 185.185 99.3717 185.204 99.2773C185.227 99.1797 185.259 99.0788 185.302 98.9746C185.445 99.0299 185.595 99.0788 185.751 99.1211C185.884 99.1569 186.029 99.1911 186.186 99.2236C186.342 99.2529 186.496 99.2676 186.649 99.2676C186.786 99.2676 186.913 99.2627 187.03 99.2529C187.147 99.2432 187.248 99.2171 187.333 99.1748C187.421 99.1292 187.489 99.0625 187.538 98.9746C187.587 98.8835 187.611 98.7581 187.611 98.5986C187.611 98.4066 187.551 98.2552 187.431 98.1445C187.313 98.0339 187.108 97.9508 186.815 97.8955C186.513 97.8369 186.257 97.7588 186.049 97.6611C185.844 97.5635 185.676 97.4512 185.546 97.3242C185.419 97.194 185.326 97.0492 185.268 96.8896C185.212 96.7301 185.185 96.5592 185.185 96.377C185.185 96.1035 185.229 95.8708 185.316 95.6787C185.404 95.4867 185.531 95.332 185.697 95.2148C185.867 95.0944 186.075 95.0081 186.322 94.9561C186.573 94.9007 186.859 94.873 187.182 94.873C187.406 94.873 187.605 94.8893 187.777 94.9219C187.953 94.9512 188.1 94.9837 188.217 95.0195C188.354 95.0618 188.472 95.1107 188.573 95.166C188.563 95.2376 188.546 95.3158 188.52 95.4004C188.497 95.472 188.466 95.5534 188.427 95.6445C188.391 95.7357 188.342 95.8285 188.28 95.9229C188.192 95.8708 188.091 95.8252 187.978 95.7861C187.88 95.7503 187.763 95.7194 187.626 95.6934C187.489 95.6641 187.333 95.6494 187.157 95.6494C187.021 95.6494 186.894 95.6559 186.776 95.6689C186.662 95.682 186.563 95.7113 186.479 95.7568C186.397 95.8024 186.334 95.8724 186.288 95.9668C186.243 96.0579 186.22 96.1833 186.22 96.3428C186.22 96.4209 186.229 96.4925 186.249 96.5576C186.272 96.6195 186.314 96.6764 186.376 96.7285C186.441 96.7806 186.531 96.8294 186.645 96.875C186.762 96.9173 186.916 96.9596 187.108 97.002C187.408 97.0671 187.657 97.1419 187.855 97.2266C188.057 97.3112 188.217 97.4137 188.334 97.5342C188.454 97.6546 188.539 97.7962 188.588 97.959C188.64 98.1185 188.666 98.3089 188.666 98.5303C188.666 98.7679 188.629 98.9827 188.554 99.1748C188.479 99.3669 188.362 99.5312 188.202 99.668C188.043 99.8047 187.838 99.9105 187.587 99.9854C187.336 100.06 187.034 100.098 186.679 100.098C186.451 100.098 186.243 100.081 186.054 100.049C185.868 100.016 185.707 99.9788 185.57 99.9365C185.411 99.891 185.268 99.8372 185.141 99.7754ZM190.424 94.165C190.333 94.165 190.246 94.1488 190.165 94.1162C190.087 94.0837 190.017 94.0397 189.955 93.9844C189.896 93.929 189.849 93.8656 189.813 93.7939C189.778 93.7191 189.76 93.6393 189.76 93.5547C189.76 93.4668 189.778 93.3854 189.813 93.3105C189.849 93.2357 189.896 93.1706 189.955 93.1152C190.017 93.0599 190.087 93.0176 190.165 92.9883C190.246 92.9557 190.333 92.9395 190.424 92.9395C190.515 92.9395 190.601 92.9557 190.683 92.9883C190.764 93.0176 190.834 93.0599 190.893 93.1152C190.954 93.1706 191.003 93.2357 191.039 93.3105C191.075 93.3854 191.093 93.4668 191.093 93.5547C191.093 93.6393 191.075 93.7191 191.039 93.7939C191.003 93.8656 190.954 93.929 190.893 93.9844C190.834 94.0397 190.764 94.0837 190.683 94.1162C190.601 94.1488 190.515 94.165 190.424 94.165ZM189.862 95.0098H190.878V99.1797L191.166 99.3848V100H190.888L190.878 99.9902V100C190.556 100 190.305 99.9349 190.126 99.8047C189.95 99.6745 189.862 99.4596 189.862 99.1602V95.0098ZM195.297 93.3691H196.405V99.082C196.542 99.082 196.684 99.0804 196.83 99.0771C196.98 99.0739 197.128 99.0706 197.274 99.0674C197.424 99.0641 197.569 99.0609 197.709 99.0576C197.852 99.0511 197.987 99.0446 198.114 99.0381C198.414 99.0251 198.707 99.012 198.993 98.999C198.993 99.0544 198.985 99.1374 198.969 99.248C198.956 99.3587 198.939 99.471 198.92 99.585C198.9 99.6956 198.881 99.7933 198.861 99.8779C198.845 99.9593 198.832 100 198.822 100H195.297V93.3691ZM199.691 98.5742C199.691 98.304 199.73 98.0745 199.809 97.8857C199.887 97.6969 200.001 97.5423 200.15 97.4219C200.303 97.3014 200.487 97.2119 200.702 97.1533C200.92 97.0915 201.169 97.0524 201.449 97.0361L202.538 96.9775V96.5869C202.538 96.4111 202.522 96.2663 202.489 96.1523C202.46 96.0384 202.41 95.9473 202.338 95.8789C202.266 95.8105 202.17 95.7633 202.05 95.7373C201.933 95.708 201.786 95.6934 201.61 95.6934C201.435 95.6934 201.267 95.7129 201.107 95.752C200.951 95.791 200.814 95.8333 200.697 95.8789C200.557 95.9342 200.429 95.9961 200.312 96.0645C200.24 95.9635 200.183 95.8675 200.141 95.7764C200.098 95.682 200.066 95.5973 200.043 95.5225C200.014 95.4378 199.994 95.3564 199.984 95.2783C200.141 95.2002 200.308 95.1318 200.487 95.0732C200.644 95.0212 200.823 94.974 201.024 94.9316C201.229 94.8893 201.444 94.8682 201.669 94.8682C202.04 94.8682 202.348 94.9007 202.592 94.9658C202.836 95.0309 203.03 95.1302 203.173 95.2637C203.319 95.3939 203.42 95.5599 203.476 95.7617C203.534 95.9603 203.563 96.1963 203.563 96.4697V99.1943L203.974 99.6924V100H203.07L202.694 99.5654H202.519C202.502 99.5817 202.458 99.6191 202.387 99.6777C202.318 99.7331 202.229 99.7933 202.118 99.8584C202.011 99.9202 201.887 99.9756 201.747 100.024C201.61 100.073 201.464 100.098 201.308 100.098C201.063 100.098 200.842 100.062 200.644 99.9902C200.445 99.9154 200.274 99.8112 200.131 99.6777C199.991 99.541 199.882 99.3799 199.804 99.1943C199.729 99.0055 199.691 98.7988 199.691 98.5742ZM200.756 98.4863C200.756 98.6361 200.777 98.7614 200.819 98.8623C200.862 98.96 200.92 99.0381 200.995 99.0967C201.073 99.1553 201.166 99.196 201.273 99.2188C201.384 99.2415 201.506 99.2529 201.64 99.2529C201.763 99.2529 201.879 99.2383 201.986 99.209C202.097 99.1764 202.193 99.1406 202.274 99.1016C202.369 99.0592 202.457 99.0088 202.538 98.9502V97.6367L201.557 97.7002C201.404 97.71 201.275 97.736 201.171 97.7783C201.07 97.8206 200.989 97.876 200.927 97.9443C200.865 98.0127 200.821 98.0941 200.795 98.1885C200.769 98.2796 200.756 98.3789 200.756 98.4863ZM204.345 95.0098H205.443L206.396 98.6572L206.605 99.6338L206.82 98.6572L207.802 95.0098H208.935L206.713 102.275H205.653L206.469 100H205.844L204.345 95.0098ZM209.311 98.5742C209.311 98.304 209.35 98.0745 209.428 97.8857C209.506 97.6969 209.62 97.5423 209.77 97.4219C209.923 97.3014 210.106 97.2119 210.321 97.1533C210.539 97.0915 210.788 97.0524 211.068 97.0361L212.157 96.9775V96.5869C212.157 96.4111 212.141 96.2663 212.108 96.1523C212.079 96.0384 212.029 95.9473 211.957 95.8789C211.885 95.8105 211.789 95.7633 211.669 95.7373C211.552 95.708 211.405 95.6934 211.229 95.6934C211.054 95.6934 210.886 95.7129 210.727 95.752C210.57 95.791 210.434 95.8333 210.316 95.8789C210.176 95.9342 210.048 95.9961 209.931 96.0645C209.859 95.9635 209.802 95.8675 209.76 95.7764C209.717 95.682 209.685 95.5973 209.662 95.5225C209.633 95.4378 209.613 95.3564 209.604 95.2783C209.76 95.2002 209.927 95.1318 210.106 95.0732C210.263 95.0212 210.442 94.974 210.644 94.9316C210.849 94.8893 211.063 94.8682 211.288 94.8682C211.659 94.8682 211.967 94.9007 212.211 94.9658C212.455 95.0309 212.649 95.1302 212.792 95.2637C212.938 95.3939 213.039 95.5599 213.095 95.7617C213.153 95.9603 213.183 96.1963 213.183 96.4697V99.1943L213.593 99.6924V100H212.689L212.313 99.5654H212.138C212.121 99.5817 212.077 99.6191 212.006 99.6777C211.938 99.7331 211.848 99.7933 211.737 99.8584C211.63 99.9202 211.506 99.9756 211.366 100.024C211.229 100.073 211.083 100.098 210.927 100.098C210.683 100.098 210.461 100.062 210.263 99.9902C210.064 99.9154 209.893 99.8112 209.75 99.6777C209.61 99.541 209.501 99.3799 209.423 99.1943C209.348 99.0055 209.311 98.7988 209.311 98.5742ZM210.375 98.4863C210.375 98.6361 210.396 98.7614 210.438 98.8623C210.481 98.96 210.539 99.0381 210.614 99.0967C210.692 99.1553 210.785 99.196 210.893 99.2188C211.003 99.2415 211.125 99.2529 211.259 99.2529C211.382 99.2529 211.498 99.2383 211.605 99.209C211.716 99.1764 211.812 99.1406 211.894 99.1016C211.988 99.0592 212.076 99.0088 212.157 98.9502V97.6367L211.176 97.7002C211.023 97.71 210.894 97.736 210.79 97.7783C210.689 97.8206 210.608 97.876 210.546 97.9443C210.484 98.0127 210.44 98.0941 210.414 98.1885C210.388 98.2796 210.375 98.3789 210.375 98.4863ZM214.506 92.9688H215.502V96.6846L215.453 97.3926L215.712 97.085L217.279 95.0098H218.461L216.874 97.0215L216.469 97.4072L216.786 97.6953L218.549 100H217.362L215.683 97.7441L215.453 97.4512L215.502 98.3398V100H214.506V92.9688ZM223.334 93.3691H224.999L226.981 100H225.873L225.268 97.9736H223.124L222.548 100H221.41L223.334 93.3691ZM225.038 97.124L224.145 93.8721L223.339 97.124H225.038ZM227.68 95.9033L227.294 95.5078V94.9561H228.192L228.612 95.3369L228.754 95.3076C228.777 95.2881 228.829 95.2539 228.91 95.2051C228.995 95.1562 229.097 95.1074 229.218 95.0586C229.341 95.0098 229.481 94.9674 229.638 94.9316C229.794 94.8926 229.958 94.873 230.131 94.873C230.404 94.873 230.647 94.9137 230.858 94.9951C231.073 95.0765 231.254 95.1937 231.4 95.3467C231.547 95.4964 231.658 95.6771 231.732 95.8887C231.807 96.1003 231.845 96.3379 231.845 96.6016V100H230.795V96.7041C230.795 96.3493 230.72 96.0889 230.57 95.9229C230.424 95.7536 230.189 95.6689 229.867 95.6689C229.708 95.6689 229.56 95.6836 229.423 95.7129C229.286 95.7389 229.166 95.7699 229.062 95.8057C228.941 95.8447 228.829 95.8903 228.725 95.9424V100H227.68V95.9033ZM232.855 98.5742C232.855 98.304 232.895 98.0745 232.973 97.8857C233.051 97.6969 233.165 97.5423 233.314 97.4219C233.467 97.3014 233.651 97.2119 233.866 97.1533C234.084 97.0915 234.333 97.0524 234.613 97.0361L235.702 96.9775V96.5869C235.702 96.4111 235.686 96.2663 235.653 96.1523C235.624 96.0384 235.574 95.9473 235.502 95.8789C235.43 95.8105 235.334 95.7633 235.214 95.7373C235.097 95.708 234.95 95.6934 234.774 95.6934C234.599 95.6934 234.431 95.7129 234.271 95.752C234.115 95.791 233.979 95.8333 233.861 95.8789C233.721 95.9342 233.593 95.9961 233.476 96.0645C233.404 95.9635 233.347 95.8675 233.305 95.7764C233.262 95.682 233.23 95.5973 233.207 95.5225C233.178 95.4378 233.158 95.3564 233.148 95.2783C233.305 95.2002 233.472 95.1318 233.651 95.0732C233.808 95.0212 233.987 94.974 234.188 94.9316C234.394 94.8893 234.608 94.8682 234.833 94.8682C235.204 94.8682 235.512 94.9007 235.756 94.9658C236 95.0309 236.194 95.1302 236.337 95.2637C236.483 95.3939 236.584 95.5599 236.64 95.7617C236.698 95.9603 236.728 96.1963 236.728 96.4697V99.1943L237.138 99.6924V100H236.234L235.858 99.5654H235.683C235.666 99.5817 235.622 99.6191 235.551 99.6777C235.482 99.7331 235.393 99.7933 235.282 99.8584C235.175 99.9202 235.051 99.9756 234.911 100.024C234.774 100.073 234.628 100.098 234.472 100.098C234.228 100.098 234.006 100.062 233.808 99.9902C233.609 99.9154 233.438 99.8112 233.295 99.6777C233.155 99.541 233.046 99.3799 232.968 99.1943C232.893 99.0055 232.855 98.7988 232.855 98.5742ZM233.92 98.4863C233.92 98.6361 233.941 98.7614 233.983 98.8623C234.026 98.96 234.084 99.0381 234.159 99.0967C234.237 99.1553 234.33 99.196 234.438 99.2188C234.548 99.2415 234.67 99.2529 234.804 99.2529C234.927 99.2529 235.043 99.2383 235.15 99.209C235.261 99.1764 235.357 99.1406 235.438 99.1016C235.533 99.0592 235.621 99.0088 235.702 98.9502V97.6367L234.721 97.7002C234.568 97.71 234.439 97.736 234.335 97.7783C234.234 97.8206 234.153 97.876 234.091 97.9443C234.029 98.0127 233.985 98.0941 233.959 98.1885C233.933 98.2796 233.92 98.3789 233.92 98.4863ZM238.051 92.9688H239.047V96.6846L238.998 97.3926L239.257 97.085L240.824 95.0098H242.006L240.419 97.0215L240.014 97.4072L240.331 97.6953L242.094 100H240.907L239.228 97.7441L238.998 97.4512L239.047 98.3398V100H238.051V92.9688ZM242.436 99.3262C242.436 99.235 242.453 99.1488 242.489 99.0674C242.528 98.986 242.58 98.9144 242.646 98.8525C242.711 98.7907 242.787 98.7435 242.875 98.7109C242.963 98.6751 243.057 98.6572 243.158 98.6572C243.259 98.6572 243.354 98.6751 243.441 98.7109C243.529 98.7435 243.606 98.7907 243.671 98.8525C243.736 98.9144 243.786 98.986 243.822 99.0674C243.861 99.1488 243.881 99.235 243.881 99.3262C243.881 99.4206 243.861 99.5101 243.822 99.5947C243.786 99.6761 243.736 99.7477 243.671 99.8096C243.606 99.8682 243.529 99.9154 243.441 99.9512C243.354 99.987 243.259 100.005 243.158 100.005C243.057 100.005 242.963 99.987 242.875 99.9512C242.787 99.9154 242.711 99.8682 242.646 99.8096C242.58 99.7477 242.528 99.6761 242.489 99.5947C242.453 99.5101 242.436 99.4206 242.436 99.3262Z" fill="black"/>
<path d="M168 122H164.259L165.007 119.755C165.142 119.35 165.074 118.901 164.824 118.554C164.574 118.207 164.169 118 163.741 118H162.667C162.469 118 162.281 118.088 162.154 118.24L159.021 122H157.333C156.598 122 156 122.598 156 123.333V129.333C156 130.069 156.598 130.667 157.333 130.667H166.205C166.476 130.666 166.741 130.583 166.963 130.428C167.186 130.274 167.357 130.055 167.453 129.801L169.291 124.901C169.319 124.826 169.333 124.747 169.333 124.667V123.333C169.333 122.598 168.735 122 168 122ZM157.333 123.333H158.667V129.333H157.333V123.333ZM168 124.546L166.205 129.333H160V122.908L162.979 119.333H163.743L162.701 122.455C162.668 122.556 162.658 122.662 162.674 122.767C162.69 122.872 162.73 122.971 162.792 123.057C162.854 123.143 162.935 123.212 163.029 123.261C163.123 123.309 163.228 123.334 163.333 123.333H168V124.546Z" fill="white"/>
<defs>
<linearGradient id="paint0_linear_60_24" x1="175.464" y1="-107" x2="-53.8269" y2="-9.06639" gradientUnits="userSpaceOnUse">
<stop stop-color="white"/>
<stop offset="1" stop-color="#D5D5D5"/>
</linearGradient>
<linearGradient id="paint1_linear_60_24" x1="91.4956" y1="-103.385" x2="-52.4373" y2="-33.8363" gradientUnits="userSpaceOnUse">
<stop stop-color="#7CD6FF"/>
<stop offset="1" stop-color="#2196F3"/>
</linearGradient>
<linearGradient id="paint2_linear_60_24" x1="74.5" y1="34.1001" x2="74.5" y2="114.9" gradientUnits="userSpaceOnUse">
<stop stop-color="white"/>
<stop offset="1" stop-color="#D9F0FF"/>
</linearGradient>
<linearGradient id="paint3_linear_60_24" x1="61.37" y1="63.3899" x2="61.37" y2="71.4699" gradientUnits="userSpaceOnUse">
<stop stop-color="white"/>
<stop offset="1" stop-color="#D9F0FF"/>
</linearGradient>
<linearGradient id="paint4_linear_60_24" x1="61.37" y1="63.3899" x2="61.37" y2="71.4699" gradientUnits="userSpaceOnUse">
<stop stop-color="white"/>
<stop offset="1" stop-color="#D9F0FF"/>
</linearGradient>
<linearGradient id="paint5_linear_60_24" x1="87.63" y1="63.3899" x2="87.63" y2="71.4699" gradientUnits="userSpaceOnUse">
<stop stop-color="white"/>
<stop offset="1" stop-color="#D9F0FF"/>
</linearGradient>
<linearGradient id="paint6_linear_60_24" x1="87.63" y1="63.3899" x2="87.63" y2="71.4699" gradientUnits="userSpaceOnUse">
<stop stop-color="white"/>
<stop offset="1" stop-color="#D9F0FF"/>
</linearGradient>
<linearGradient id="paint7_linear_60_24" x1="74.5001" y1="87.6001" x2="74.5001" y2="94.1651" gradientUnits="userSpaceOnUse">
<stop stop-color="white"/>
<stop offset="1" stop-color="#D9F0FF"/>
</linearGradient>
<linearGradient id="paint8_linear_60_24" x1="166.535" y1="88" x2="136.597" y2="102.466" gradientUnits="userSpaceOnUse">
<stop stop-color="#7CD6FF"/>
<stop offset="1" stop-color="#2196F3"/>
</linearGradient>
<linearGradient id="paint9_linear_60_24" x1="237.237" y1="88" x2="203.577" y2="144.3" gradientUnits="userSpaceOnUse">
<stop stop-color="#7CD6FF"/>
<stop offset="1" stop-color="#2196F3"/>
</linearGradient>
<linearGradient id="paint10_linear_60_24" x1="235.882" y1="106" x2="222.948" y2="139.169" gradientUnits="userSpaceOnUse">
<stop stop-color="#7CD6FF"/>
<stop offset="1" stop-color="#2196F3"/>
</linearGradient>
<clipPath id="clip0_60_24">
<rect width="101" height="101" fill="white" transform="translate(24 24)"/>
</clipPath>
</defs>
</svg>
